<?xml version="1.0" encoding="UTF-8"?>
<!DOCTYPE svg PUBLIC "-//W3C//DTD SVG 1.1//EN" "http://www.w3.org/Graphics/SVG/1.1/DTD/svg11.dtd">
<svg xmlns="http://www.w3.org/2000/svg" version="1.1" width="500px" height="500px" style="shape-rendering:geometricPrecision; text-rendering:geometricPrecision; image-rendering:optimizeQuality; fill-rule:evenodd; clip-rule:evenodd" xmlns:xlink="http://www.w3.org/1999/xlink">
<g><path style="opacity:0.998" fill="#3c3c3c" d="M 136.5,152.5 C 134.824,153.183 134.157,154.517 134.5,156.5C 131.176,146.854 126.509,137.854 120.5,129.5C 120.573,127.973 119.906,126.973 118.5,126.5C 113.185,120.855 107.185,116.189 100.5,112.5C 99.089,110.461 97.089,109.461 94.5,109.5C 91.9327,109.279 89.5994,108.612 87.5,107.5C 86.036,106.84 84.3693,106.507 82.5,106.5C 79.7954,106.316 77.4621,106.983 75.5,108.5C 70.5607,114.348 69.7274,120.681 73,127.5C 79.1829,138.849 87.3496,148.516 97.5,156.5C 96.5,156.5 95.5,156.5 94.5,156.5C 94.5,157.5 94.5,158.5 94.5,159.5C 93.5,159.5 92.5,159.5 91.5,159.5C 92.1667,158.833 92.8333,158.167 93.5,157.5C 92.4154,155.413 90.7488,154.08 88.5,153.5C 87.5,153.167 86.8333,152.5 86.5,151.5C 85.5,149.833 84.1667,148.5 82.5,147.5C 69.6372,137.146 65.4706,124.146 70,108.5C 71.7309,106.383 73.8976,104.883 76.5,104C 94.9723,103.316 110.139,110.15 122,124.5C 128.696,132.893 133.53,142.226 136.5,152.5 Z"/></g>
<g><path style="opacity:0.054" fill="#dcdcdc" d="M 87.5,107.5 C 83.4517,107.395 79.4517,107.728 75.5,108.5C 77.4621,106.983 79.7954,106.316 82.5,106.5C 84.3693,106.507 86.036,106.84 87.5,107.5 Z"/></g>
<g><path style="opacity:0.053" fill="#e2e2e2" d="M 186.5,109.5 C 182.664,110.378 178.664,111.044 174.5,111.5C 174.918,110.778 175.584,110.278 176.5,110C 179.817,109.502 183.15,109.335 186.5,109.5 Z"/></g>
<g><path style="opacity:0.11" fill="#d0d0d0" d="M 94.5,109.5 C 97.089,109.461 99.089,110.461 100.5,112.5C 98.1815,112.008 96.1815,111.008 94.5,109.5 Z"/></g>
<g><path style="opacity:0.004" fill="#e2e2e2" d="M 172.5,112.5 C 172.027,113.906 171.027,114.573 169.5,114.5C 169.973,113.094 170.973,112.427 172.5,112.5 Z"/></g>
<g><path style="opacity:0.341" fill="#b2b2b2" d="M 163.5,122.5 C 163.598,124.553 162.931,126.22 161.5,127.5C 161.402,125.447 162.069,123.78 163.5,122.5 Z"/></g>
<g><path style="opacity:0.012" fill="#d3d3d3" d="M 118.5,126.5 C 119.906,126.973 120.573,127.973 120.5,129.5C 119.094,129.027 118.427,128.027 118.5,126.5 Z"/></g>
<g><path style="opacity:0.008" fill="#cdcdcd" d="M 82.5,147.5 C 84.1667,148.5 85.5,149.833 86.5,151.5C 84.1667,151.167 82.8333,149.833 82.5,147.5 Z"/></g>
<g><path style="opacity:0.999" fill="#353535" d="M 186.5,109.5 C 183.15,109.335 179.817,109.502 176.5,110C 175.584,110.278 174.918,110.778 174.5,111.5C 174.158,112.338 173.492,112.672 172.5,112.5C 170.973,112.427 169.973,113.094 169.5,114.5C 167.488,117.205 165.488,119.872 163.5,122.5C 162.069,123.78 161.402,125.447 161.5,127.5C 160.364,137.163 159.197,146.83 158,156.5C 157.8,158.32 156.966,159.653 155.5,160.5C 154.167,161.167 153.167,162.167 152.5,163.5C 150.5,163.5 149.5,164.5 149.5,166.5C 147.057,172.459 143.223,177.459 138,181.5C 135.682,190.287 131.182,197.621 124.5,203.5C 122.5,204.833 120.833,206.5 119.5,208.5C 118.5,210.167 117.167,211.5 115.5,212.5C 113.973,212.427 112.973,213.094 112.5,214.5C 110.371,216.95 107.704,218.617 104.5,219.5C 101.515,220.326 98.8485,221.659 96.5,223.5C 96.1583,224.338 95.4916,224.672 94.5,224.5C 90.2157,225.261 86.2157,226.595 82.5,228.5C 81.791,229.404 80.791,229.737 79.5,229.5C 75.0478,229.631 70.7144,230.298 66.5,231.5C 67.1157,230.202 67.1157,229.202 66.5,228.5C 84.0914,225.706 100.091,219.039 114.5,208.5C 117.167,207.833 118.833,206.167 119.5,203.5C 124.452,198.951 128.452,193.617 131.5,187.5C 131.03,186.537 130.363,186.537 129.5,187.5C 127.973,187.427 126.973,188.094 126.5,189.5C 124.973,189.427 123.973,190.094 123.5,191.5C 123.158,192.338 122.492,192.672 121.5,192.5C 119.973,192.427 118.973,193.094 118.5,194.5C 116.167,193.167 113.833,193.167 111.5,194.5C 116.326,191.196 121.326,188.03 126.5,185C 129.483,183.016 132.15,180.683 134.5,178C 135.73,170.842 135.73,163.675 134.5,156.5C 134.157,154.517 134.824,153.183 136.5,152.5C 138.118,155.171 138.785,158.171 138.5,161.5C 138.334,166.179 138.501,170.845 139,175.5C 139.717,174.956 140.217,174.289 140.5,173.5C 142.412,171.343 144.079,169.009 145.5,166.5C 146.757,165.377 146.424,164.711 144.5,164.5C 142.589,164.426 141.422,163.426 141,161.5C 138.659,153.512 141.492,150.345 149.5,152C 150.863,153.945 151.697,156.112 152,158.5C 153.751,156.51 154.751,154.177 155,151.5C 155.671,143.122 156.671,134.789 158,126.5C 162.092,112.043 171.592,105.377 186.5,106.5C 186.5,107.5 186.5,108.5 186.5,109.5 Z M 144.5,155.5 C 147.633,155.761 148.8,157.428 148,160.5C 145.708,161.601 144.208,160.768 143.5,158C 144.252,157.329 144.586,156.496 144.5,155.5 Z"/></g>
<g><path style="opacity:0.231" fill="#aaaaaa" d="M 88.5,153.5 C 90.7488,154.08 92.4154,155.413 93.5,157.5C 91.2512,156.92 89.5846,155.587 88.5,153.5 Z"/></g>
<g><path style="opacity:0.998" fill="#252525" d="M 97.5,156.5 C 103.176,156.334 108.843,156.501 114.5,157C 115.416,157.374 116.25,157.874 117,158.5C 117.796,161.039 117.629,163.372 116.5,165.5C 114.236,166.219 111.903,166.552 109.5,166.5C 106.088,165.958 103.088,164.625 100.5,162.5C 100.038,161.12 99.0377,160.453 97.5,160.5C 95.5784,160.801 93.9117,161.467 92.5,162.5C 91.791,163.404 90.791,163.737 89.5,163.5C 88.0413,163.433 86.7079,163.766 85.5,164.5C 85.5,163.5 85.5,162.5 85.5,161.5C 87.2143,160.262 89.2143,159.595 91.5,159.5C 92.5,159.5 93.5,159.5 94.5,159.5C 94.5,158.5 94.5,157.5 94.5,156.5C 95.5,156.5 96.5,156.5 97.5,156.5 Z M 105.5,161.5 C 108.344,160.449 111.344,160.449 114.5,161.5C 114.189,162.478 113.522,163.145 112.5,163.5C 110.271,162.423 107.937,161.756 105.5,161.5 Z"/></g>
<g><path style="opacity:0.053" fill="#e4e4e4" d="M 114.5,161.5 C 111.344,160.449 108.344,160.449 105.5,161.5C 104.711,161.217 104.044,160.717 103.5,160C 105,159.833 106.5,159.667 108,159.5C 110.544,159.336 112.71,160.003 114.5,161.5 Z"/></g>
<g><path style="opacity:0.027" fill="#cbcbcb" d="M 100.5,162.5 C 97.9223,161.746 95.2556,161.746 92.5,162.5C 93.9117,161.467 95.5784,160.801 97.5,160.5C 99.0377,160.453 100.038,161.12 100.5,162.5 Z"/></g>
<g><path style="opacity:0.012" fill="#d9d9d9" d="M 155.5,160.5 C 155.5,162.5 154.5,163.5 152.5,163.5C 153.167,162.167 154.167,161.167 155.5,160.5 Z"/></g>
<g><path style="opacity:0.031" fill="#d8d8d8" d="M 89.5,163.5 C 88.2196,164.931 86.5529,165.598 84.5,165.5C 84.5,164.833 84.8333,164.5 85.5,164.5C 86.7079,163.766 88.0413,163.433 89.5,163.5 Z"/></g>
<g><path style="opacity:0.502" fill="#989898" d="M 138.5,161.5 C 139.167,165.5 139.833,169.5 140.5,173.5C 140.217,174.289 139.717,174.956 139,175.5C 138.501,170.845 138.334,166.179 138.5,161.5 Z"/></g>
<g><path style="opacity:0.22" fill="#d9d9d9" d="M 144.5,164.5 C 146.424,164.711 146.757,165.377 145.5,166.5C 145.167,165.833 144.833,165.167 144.5,164.5 Z"/></g>
<g><path style="opacity:1" fill="#59763e" d="M 390.5,167.5 C 386.524,166.705 382.524,166.038 378.5,165.5C 378.75,164.078 379.583,163.078 381,162.5C 383.835,163.42 386.668,164.42 389.5,165.5C 390.298,165.957 390.631,166.624 390.5,167.5 Z"/></g>
<g><path style="opacity:0.141" fill="#bdbdbd" d="M 152.5,163.5 C 151.833,164.833 150.833,165.833 149.5,166.5C 149.5,164.5 150.5,163.5 152.5,163.5 Z"/></g>
<g><path style="opacity:0.018" fill="#f0f0f0" d="M 116.5,165.5 C 115.688,166.993 114.355,167.66 112.5,167.5C 111.274,167.48 110.274,167.147 109.5,166.5C 111.903,166.552 114.236,166.219 116.5,165.5 Z"/></g>
<g><path style="opacity:1" fill="#30600b" d="M 246.5,165.5 C 246.66,167.153 247.326,168.486 248.5,169.5C 248.553,176.583 247.886,183.583 246.5,190.5C 245.167,190.5 243.833,190.5 242.5,190.5C 242.737,186.59 241.904,182.923 240,179.5C 239.781,180.938 239.281,182.271 238.5,183.5C 237.604,180.856 236.771,178.19 236,175.5C 234.529,176.381 233.696,177.714 233.5,179.5C 232.918,183.155 232.418,186.822 232,190.5C 231.617,191.056 231.117,191.389 230.5,191.5C 230.998,186.848 231.331,182.181 231.5,177.5C 232.582,172.005 234.749,167.005 238,162.5C 241.025,163.194 243.858,164.194 246.5,165.5 Z"/></g>
<g><path style="opacity:0.008" fill="#e8e8e8" d="M 80.5,167.5 C 80.0269,168.906 79.0269,169.573 77.5,169.5C 77.9731,168.094 78.9731,167.427 80.5,167.5 Z"/></g>
<g><path style="opacity:0.004" fill="#e3e3e3" d="M 77.5,169.5 C 77.0269,170.906 76.0269,171.573 74.5,171.5C 74.9731,170.094 75.9731,169.427 77.5,169.5 Z"/></g>
<g><path style="opacity:0.988" fill="#7a9266" d="M 246.5,165.5 C 249.69,167.347 251.357,170.18 251.5,174C 250.95,177.324 250.283,180.491 249.5,183.5C 249.819,178.637 249.486,173.97 248.5,169.5C 247.326,168.486 246.66,167.153 246.5,165.5 Z"/></g>
<g><path style="opacity:0.867" fill="#839674" d="M 288.5,175.5 C 286.833,175.5 285.167,175.5 283.5,175.5C 285.167,172.833 286.833,172.833 288.5,175.5 Z"/></g>
<g><path style="opacity:0.871" fill="#829371" d="M 329.5,175.5 C 327.833,175.5 326.167,175.5 324.5,175.5C 326.167,172.833 327.833,172.833 329.5,175.5 Z"/></g>
<g><path style="opacity:0.999" fill="#3f3f3f" d="M 85.5,161.5 C 85.5,162.5 85.5,163.5 85.5,164.5C 84.8333,164.5 84.5,164.833 84.5,165.5C 83.4863,166.674 82.153,167.34 80.5,167.5C 78.9731,167.427 77.9731,168.094 77.5,169.5C 75.9731,169.427 74.9731,170.094 74.5,171.5C 70.2909,175.248 67.6243,179.914 66.5,185.5C 67.7676,190.611 70.7676,194.444 75.5,197C 87.7694,201.304 99.7694,200.471 111.5,194.5C 113.833,193.167 116.167,193.167 118.5,194.5C 117.486,195.674 116.153,196.34 114.5,196.5C 112.181,196.992 110.181,197.992 108.5,199.5C 107.22,200.931 105.553,201.598 103.5,201.5C 100.848,201.41 98.5145,202.076 96.5,203.5C 92.0661,204.794 87.7327,204.794 83.5,203.5C 81.4006,202.388 79.0673,201.721 76.5,201.5C 74.847,201.34 73.5137,200.674 72.5,199.5C 72.0269,198.094 71.0269,197.427 69.5,197.5C 68.8333,197.5 68.5,197.167 68.5,196.5C 68.1667,195.5 67.5,194.833 66.5,194.5C 61.7369,189.022 61.2369,183.022 65,176.5C 70.1654,169.172 76.9988,164.172 85.5,161.5 Z"/></g>
<g><path style="opacity:0.996" fill="#879b75" d="M 329.5,175.5 C 330.665,176.496 331.332,177.829 331.5,179.5C 331.071,182.029 330.404,184.362 329.5,186.5C 329.5,182.833 329.5,179.167 329.5,175.5 Z"/></g>
<g><path style="opacity:1" fill="#2b5d02" d="M 372.5,208.5 C 373.32,204.855 371.987,202.522 368.5,201.5C 367.833,202.5 367.167,203.5 366.5,204.5C 365.481,202.54 365.481,200.54 366.5,198.5C 368.142,196.919 370.142,196.253 372.5,196.5C 371.664,191.784 372.664,187.284 375.5,183C 376.206,179.138 377.039,175.305 378,171.5C 380.793,174.151 382.127,177.485 382,181.5C 383.016,180.366 383.683,180.699 384,182.5C 384.333,181.833 384.667,181.167 385,180.5C 385.333,182.167 385.667,183.833 386,185.5C 386.658,181.428 386.325,177.428 385,173.5C 384.299,171.238 383.132,170.238 381.5,170.5C 383.636,166.849 386.303,166.516 389.5,169.5C 389.833,171.167 390.167,172.833 390.5,174.5C 389.386,183.22 388.052,191.886 386.5,200.5C 384.56,198.955 383.394,196.955 383,194.5C 382.107,193.289 381.274,193.289 380.5,194.5C 380.931,195.293 381.265,196.127 381.5,197C 380.855,202.847 380.188,208.681 379.5,214.5C 379.167,214.833 378.833,215.167 378.5,215.5C 376.189,212.214 375.856,208.714 377.5,205C 377.546,203.272 377.046,201.772 376,200.5C 374.525,203.122 373.359,205.788 372.5,208.5 Z"/></g>
<g><path style="opacity:1" fill="#57763b" d="M 161.5,188.5 C 161.232,185.881 161.565,183.381 162.5,181C 160.305,180.288 158.638,180.955 157.5,183C 156.767,184.766 156.433,186.599 156.5,188.5C 155.5,188.5 154.5,188.5 153.5,188.5C 154.713,183.372 157.38,179.372 161.5,176.5C 163.587,176.539 164.921,177.539 165.5,179.5C 164.533,182.763 163.199,185.763 161.5,188.5 Z"/></g>
<g><path style="opacity:1" fill="#2c5e06" d="M 246.5,190.5 C 245.902,195.813 245.569,201.146 245.5,206.5C 245.369,207.239 245.536,207.906 246,208.5C 246.671,207.748 247.504,207.414 248.5,207.5C 251.082,207.025 253.082,207.692 254.5,209.5C 254.5,210.167 254.167,210.5 253.5,210.5C 250.979,210.44 248.646,211.106 246.5,212.5C 245.558,212.392 244.725,212.059 244,211.5C 243.762,215.222 243.262,218.889 242.5,222.5C 242.863,223.183 243.196,223.85 243.5,224.5C 242.74,230.451 242.073,236.451 241.5,242.5C 241.5,247.5 241.5,252.5 241.5,257.5C 238.065,257.688 235.065,256.688 232.5,254.5C 231.484,245.19 230.651,235.857 230,226.5C 229.617,225.944 229.117,225.611 228.5,225.5C 228.5,224.833 228.167,224.5 227.5,224.5C 226.811,223.226 225.977,223.226 225,224.5C 224.833,224 224.667,223.5 224.5,223C 225.729,221.614 226.729,220.114 227.5,218.5C 228.815,213.32 228.815,207.986 227.5,202.5C 226.893,202.624 226.56,202.957 226.5,203.5C 223.947,204.651 222.614,203.651 222.5,200.5C 226.314,198.553 228.98,195.553 230.5,191.5C 231.117,191.389 231.617,191.056 232,190.5C 232.418,186.822 232.918,183.155 233.5,179.5C 233.696,177.714 234.529,176.381 236,175.5C 236.771,178.19 237.604,180.856 238.5,183.5C 239.281,182.271 239.781,180.938 240,179.5C 241.904,182.923 242.737,186.59 242.5,190.5C 243.833,190.5 245.167,190.5 246.5,190.5 Z"/></g>
<g><path style="opacity:1" fill="#517236" d="M 190.5,192.5 C 190.337,190.143 190.503,187.81 191,185.5C 192.557,182.435 194.057,179.435 195.5,176.5C 196.474,174.257 196.808,171.924 196.5,169.5C 190.56,167.126 185.727,168.459 182,173.5C 180.288,179.259 178.288,184.926 176,190.5C 174.483,192.24 172.983,193.906 171.5,195.5C 174.064,185.711 177.73,176.377 182.5,167.5C 187.251,166.119 191.917,166.286 196.5,168C 197.944,169.126 198.61,170.626 198.5,172.5C 196.345,179.46 193.679,186.127 190.5,192.5 Z"/></g>
<g><path style="opacity:1" fill="#2f5e09" d="M 161.5,188.5 C 157.052,191.136 155.552,195.136 157,200.5C 157.903,201.701 159.069,202.535 160.5,203C 156.233,203.987 155.9,204.821 159.5,205.5C 159.5,206.5 159.5,207.5 159.5,208.5C 161.939,207.947 164.273,207.947 166.5,208.5C 166.833,208.167 167.167,207.833 167.5,207.5C 165.577,206.692 163.577,206.192 161.5,206C 162.503,202.495 164.837,200.995 168.5,201.5C 168.307,204.475 169.307,206.975 171.5,209C 169.644,211.673 167.311,212.173 164.5,210.5C 162.315,210.852 160.481,211.852 159,213.5C 157.775,213.138 156.609,212.638 155.5,212C 154.469,209.04 153.469,206.04 152.5,203C 153.956,202.577 154.456,201.744 154,200.5C 153,201.167 152,201.833 151,202.5C 150.044,206.235 148.878,209.901 147.5,213.5C 145.031,214.036 142.864,215.036 141,216.5C 140.061,213.985 138.561,213.318 136.5,214.5C 136.5,213.167 136.5,211.833 136.5,210.5C 138.416,209.276 140.749,209.276 143.5,210.5C 142.571,211.315 141.571,212.148 140.5,213C 142.441,213.743 144.274,213.576 146,212.5C 147.617,208.694 148.45,204.694 148.5,200.5C 149.648,196.213 151.315,192.213 153.5,188.5C 154.5,188.5 155.5,188.5 156.5,188.5C 156.433,186.599 156.767,184.766 157.5,183C 158.638,180.955 160.305,180.288 162.5,181C 161.565,183.381 161.232,185.881 161.5,188.5 Z"/></g>
<g><path style="opacity:1" fill="#537538" d="M 248.5,169.5 C 249.486,173.97 249.819,178.637 249.5,183.5C 249.268,191.485 247.935,199.151 245.5,206.5C 245.569,201.146 245.902,195.813 246.5,190.5C 247.886,183.583 248.553,176.583 248.5,169.5 Z"/></g>
<g><path style="opacity:0.008" fill="#ececec" d="M 129.5,187.5 C 129.027,188.906 128.027,189.573 126.5,189.5C 126.973,188.094 127.973,187.427 129.5,187.5 Z"/></g>
<g><path style="opacity:0.004" fill="#ededed" d="M 126.5,189.5 C 126.027,190.906 125.027,191.573 123.5,191.5C 123.973,190.094 124.973,189.427 126.5,189.5 Z"/></g>
<g><path style="opacity:1" fill="#376314" d="M 283.5,175.5 C 285.167,175.5 286.833,175.5 288.5,175.5C 289.665,176.496 290.332,177.829 290.5,179.5C 289.45,185.034 288.116,190.368 286.5,195.5C 285.883,195.611 285.383,195.944 285,196.5C 284.503,198.81 284.337,201.143 284.5,203.5C 284.768,205.099 284.434,206.432 283.5,207.5C 281.973,207.427 280.973,208.094 280.5,209.5C 279.172,208.493 278.172,207.16 277.5,205.5C 278.653,202.554 279.653,199.554 280.5,196.5C 279.726,195.289 278.893,195.289 278,196.5C 277.727,194.899 277.227,193.399 276.5,192C 277.325,190.312 278.325,190.145 279.5,191.5C 280.631,189.926 280.798,188.259 280,186.5C 277.072,188.418 275.406,191.085 275,194.5C 274.329,195.252 273.496,195.586 272.5,195.5C 273.483,190.046 274.983,184.713 277,179.5C 278.972,177.768 281.139,176.435 283.5,175.5 Z"/></g>
<g><path style="opacity:0.004" fill="#e5e5e5" d="M 121.5,192.5 C 121.027,193.906 120.027,194.573 118.5,194.5C 118.973,193.094 119.973,192.427 121.5,192.5 Z"/></g>
<g><path style="opacity:1" fill="#346211" d="M 378.5,165.5 C 382.524,166.038 386.524,166.705 390.5,167.5C 392.927,169.508 393.927,172.174 393.5,175.5C 392.486,185.613 390.819,195.613 388.5,205.5C 388.747,206.713 389.414,207.38 390.5,207.5C 392.167,207.5 393.833,207.5 395.5,207.5C 395.5,208.5 395.5,209.5 395.5,210.5C 393.324,212.515 390.824,214.182 388,215.5C 385.779,225.711 384.612,236.045 384.5,246.5C 384.815,250.371 384.482,254.038 383.5,257.5C 380.579,257.717 377.913,257.051 375.5,255.5C 375.084,245.003 373.584,234.67 371,224.5C 369.795,223.929 368.628,223.262 367.5,222.5C 368.473,220.36 369.973,218.693 372,217.5C 372.498,214.518 372.665,211.518 372.5,208.5C 373.359,205.788 374.525,203.122 376,200.5C 377.046,201.772 377.546,203.272 377.5,205C 375.856,208.714 376.189,212.214 378.5,215.5C 378.833,215.167 379.167,214.833 379.5,214.5C 380.188,208.681 380.855,202.847 381.5,197C 381.265,196.127 380.931,195.293 380.5,194.5C 381.274,193.289 382.107,193.289 383,194.5C 383.394,196.955 384.56,198.955 386.5,200.5C 388.052,191.886 389.386,183.22 390.5,174.5C 390.167,172.833 389.833,171.167 389.5,169.5C 386.303,166.516 383.636,166.849 381.5,170.5C 383.132,170.238 384.299,171.238 385,173.5C 386.325,177.428 386.658,181.428 386,185.5C 385.667,183.833 385.333,182.167 385,180.5C 384.667,181.167 384.333,181.833 384,182.5C 383.683,180.699 383.016,180.366 382,181.5C 382.127,177.485 380.793,174.151 378,171.5C 377.039,175.305 376.206,179.138 375.5,183C 372.664,187.284 371.664,191.784 372.5,196.5C 370.142,196.253 368.142,196.919 366.5,198.5C 368.307,194.886 370.14,191.22 372,187.5C 372.687,179.617 374.854,172.284 378.5,165.5 Z"/></g>
<g><path style="opacity:1" fill="#5b7c40" d="M 231.5,177.5 C 231.331,182.181 230.998,186.848 230.5,191.5C 228.98,195.553 226.314,198.553 222.5,200.5C 224.413,196.738 226.579,193.071 229,189.5C 229.528,185.301 230.361,181.301 231.5,177.5 Z"/></g>
<g><path style="opacity:0.004" fill="#d8d8d8" d="M 66.5,194.5 C 67.5,194.833 68.1667,195.5 68.5,196.5C 67.1667,196.5 66.5,195.833 66.5,194.5 Z"/></g>
<g><path style="opacity:0.025" fill="#e0e0e0" d="M 114.5,196.5 C 113.089,198.539 111.089,199.539 108.5,199.5C 110.181,197.992 112.181,196.992 114.5,196.5 Z"/></g>
<g><path style="opacity:1" fill="#879e6e" d="M 286.5,195.5 C 286.435,198.428 285.768,201.095 284.5,203.5C 284.337,201.143 284.503,198.81 285,196.5C 285.383,195.944 285.883,195.611 286.5,195.5 Z"/></g>
<g><path style="opacity:0.294" fill="#bababa" d="M 69.5,197.5 C 71.0269,197.427 72.0269,198.094 72.5,199.5C 70.9731,199.573 69.9731,198.906 69.5,197.5 Z"/></g>
<g><path style="opacity:0.976" fill="#8ca179" d="M 190.5,194.5 C 194.404,194.84 198.404,195.006 202.5,195C 204.394,196.079 204.727,197.413 203.5,199C 204.328,199.915 205.328,200.581 206.5,201C 205.552,201.483 204.552,201.649 203.5,201.5C 203.843,203.483 203.176,204.817 201.5,205.5C 201.33,204.178 201.663,203.011 202.5,202C 198.514,201.501 194.514,201.334 190.5,201.5C 193.641,200.679 196.975,200.179 200.5,200C 200.201,198.68 200.034,197.18 200,195.5C 197.313,196.713 194.48,197.38 191.5,197.5C 190.89,196.609 190.557,195.609 190.5,194.5 Z"/></g>
<g><path style="opacity:1" fill="#527634" d="M 161.5,188.5 C 160.798,191.578 159.798,194.578 158.5,197.5C 158.608,198.442 158.941,199.275 159.5,200C 164.055,200.535 168.055,199.368 171.5,196.5C 171.727,198.933 170.727,200.599 168.5,201.5C 164.837,200.995 162.503,202.495 161.5,206C 163.577,206.192 165.577,206.692 167.5,207.5C 167.167,207.833 166.833,208.167 166.5,208.5C 164.273,207.947 161.939,207.947 159.5,208.5C 159.5,207.5 159.5,206.5 159.5,205.5C 155.9,204.821 156.233,203.987 160.5,203C 159.069,202.535 157.903,201.701 157,200.5C 155.552,195.136 157.052,191.136 161.5,188.5 Z"/></g>
<g><path style="opacity:1" fill="#517233" d="M 191.5,197.5 C 190.34,198.265 189.34,199.265 188.5,200.5C 188.957,201.298 189.624,201.631 190.5,201.5C 194.514,201.334 198.514,201.501 202.5,202C 201.663,203.011 201.33,204.178 201.5,205.5C 198.446,208.093 194.78,209.759 190.5,210.5C 190.804,209.85 191.137,209.183 191.5,208.5C 194.062,207.359 196.728,206.526 199.5,206C 198.167,205 198.167,204 199.5,203C 195.775,202.24 192.108,202.407 188.5,203.5C 187.534,201.604 187.201,199.604 187.5,197.5C 188.833,197.5 190.167,197.5 191.5,197.5 Z"/></g>
<g><path style="opacity:0.016" fill="#eaeaea" d="M 76.5,201.5 C 79.0673,201.721 81.4006,202.388 83.5,203.5C 80.7718,203.829 78.4385,203.163 76.5,201.5 Z"/></g>
<g><path style="opacity:0.051" fill="#dedede" d="M 103.5,201.5 C 101.485,202.924 99.1522,203.59 96.5,203.5C 98.5145,202.076 100.848,201.41 103.5,201.5 Z"/></g>
<g><path style="opacity:1" fill="#2b5d03" d="M 190.5,192.5 C 190.5,193.167 190.5,193.833 190.5,194.5C 190.557,195.609 190.89,196.609 191.5,197.5C 190.167,197.5 188.833,197.5 187.5,197.5C 187.201,199.604 187.534,201.604 188.5,203.5C 192.108,202.407 195.775,202.24 199.5,203C 198.167,204 198.167,205 199.5,206C 196.728,206.526 194.062,207.359 191.5,208.5C 191.137,209.183 190.804,209.85 190.5,210.5C 190.167,210.5 189.833,210.5 189.5,210.5C 185.406,209.705 182.239,211.038 180,214.5C 178.21,224.871 176.21,235.204 174,245.5C 173.29,246.973 172.124,247.64 170.5,247.5C 171.008,250.176 171.175,252.843 171,255.5C 169.509,257.004 167.676,257.837 165.5,258C 166.598,258.77 166.598,259.603 165.5,260.5C 165.167,260.5 164.833,260.5 164.5,260.5C 158.5,261.833 156.167,259.5 157.5,253.5C 157.5,253.167 157.5,252.833 157.5,252.5C 162.17,243.208 164.503,233.208 164.5,222.5C 164.5,222.167 164.5,221.833 164.5,221.5C 165.613,220.054 165.78,218.387 165,216.5C 164.326,215.422 163.326,214.755 162,214.5C 159.938,215.729 157.771,216.729 155.5,217.5C 152.11,216.215 150.777,217.549 151.5,221.5C 148.538,221.117 147.538,222.117 148.5,224.5C 145.633,231.462 144.3,238.795 144.5,246.5C 143.778,246.082 143.278,245.416 143,244.5C 142.51,245.793 142.343,247.127 142.5,248.5C 140.712,248.785 139.045,248.452 137.5,247.5C 136.574,243.906 136.241,240.24 136.5,236.5C 137.924,234.485 138.59,232.152 138.5,229.5C 138.5,227.833 138.5,226.167 138.5,224.5C 136.701,221.495 136.034,218.162 136.5,214.5C 138.561,213.318 140.061,213.985 141,216.5C 142.864,215.036 145.031,214.036 147.5,213.5C 148.878,209.901 150.044,206.235 151,202.5C 152,201.833 153,201.167 154,200.5C 154.456,201.744 153.956,202.577 152.5,203C 153.469,206.04 154.469,209.04 155.5,212C 156.609,212.638 157.775,213.138 159,213.5C 160.481,211.852 162.315,210.852 164.5,210.5C 167.311,212.173 169.644,211.673 171.5,209C 169.307,206.975 168.307,204.475 168.5,201.5C 170.727,200.599 171.727,198.933 171.5,196.5C 171.5,196.167 171.5,195.833 171.5,195.5C 172.983,193.906 174.483,192.24 176,190.5C 178.288,184.926 180.288,179.259 182,173.5C 185.727,168.459 190.56,167.126 196.5,169.5C 196.808,171.924 196.474,174.257 195.5,176.5C 194.057,179.435 192.557,182.435 191,185.5C 190.503,187.81 190.337,190.143 190.5,192.5 Z"/></g>
<g><path style="opacity:0.769" fill="#7d7d7d" d="M 119.5,203.5 C 118.833,206.167 117.167,207.833 114.5,208.5C 115.833,206.5 117.5,204.833 119.5,203.5 Z"/></g>
<g><path style="opacity:1" fill="#6c8a53" d="M 148.5,200.5 C 148.45,204.694 147.617,208.694 146,212.5C 144.274,213.576 142.441,213.743 140.5,213C 141.571,212.148 142.571,211.315 143.5,210.5C 140.749,209.276 138.416,209.276 136.5,210.5C 136.539,209.417 136.873,208.417 137.5,207.5C 142.788,207.374 146.455,205.041 148.5,200.5 Z M 143.5,210.5 C 143.082,209.778 142.416,209.278 141.5,209C 142.766,208.691 143.933,208.191 145,207.5C 145.585,208.998 145.085,209.998 143.5,210.5 Z"/></g>
<g><path style="opacity:1" fill="#5c7c40" d="M 222.5,200.5 C 222.614,203.651 223.947,204.651 226.5,203.5C 224.582,208.343 221.916,212.677 218.5,216.5C 219.583,213.523 220.25,210.69 220.5,208C 219.423,207.53 218.423,207.697 217.5,208.5C 218.669,205.489 220.336,202.822 222.5,200.5 Z"/></g>
<g><path style="opacity:1" fill="#5d7a44" d="M 313.5,195.5 C 312.838,199.466 312.505,203.466 312.5,207.5C 311.624,207.369 310.957,207.702 310.5,208.5C 310.027,212.311 308.694,215.644 306.5,218.5C 308.259,210.564 310.592,202.898 313.5,195.5 Z"/></g>
<g><path style="opacity:1" fill="#32610f" d="M 324.5,175.5 C 326.167,175.5 327.833,175.5 329.5,175.5C 329.5,179.167 329.5,182.833 329.5,186.5C 327.259,199.128 324.259,211.461 320.5,223.5C 320.664,220.813 320.497,218.146 320,215.5C 318.667,216.167 317.667,217.167 317,218.5C 315.746,215.682 314.913,212.682 314.5,209.5C 314.253,208.287 313.586,207.62 312.5,207.5C 312.505,203.466 312.838,199.466 313.5,195.5C 314.483,190.046 315.983,184.713 318,179.5C 319.972,177.768 322.139,176.435 324.5,175.5 Z"/></g>
<g><path style="opacity:0.992" fill="#80946b" d="M 254.5,209.5 C 253.082,207.692 251.082,207.025 248.5,207.5C 251.463,205.016 254.463,205.016 257.5,207.5C 256.995,208.919 255.995,209.585 254.5,209.5 Z"/></g>
<g><path style="opacity:0.992" fill="#768b61" d="M 395.5,210.5 C 395.5,209.5 395.5,208.5 395.5,207.5C 393.833,207.5 392.167,207.5 390.5,207.5C 393.358,205.501 396.358,205.335 399.5,207C 400.833,207.667 400.833,208.333 399.5,209C 398.255,209.791 396.922,210.291 395.5,210.5 Z"/></g>
<g><path style="opacity:0.016" fill="#dcdcdc" d="M 124.5,203.5 C 123.833,206.167 122.167,207.833 119.5,208.5C 120.833,206.5 122.5,204.833 124.5,203.5 Z"/></g>
<g><path style="opacity:1" fill="#718d54" d="M 253.5,210.5 C 250.569,212.248 247.736,214.248 245,216.5C 244.817,219.365 244.317,222.031 243.5,224.5C 243.196,223.85 242.863,223.183 242.5,222.5C 243.262,218.889 243.762,215.222 244,211.5C 244.725,212.059 245.558,212.392 246.5,212.5C 248.646,211.106 250.979,210.44 253.5,210.5 Z"/></g>
<g><path style="opacity:0.004" fill="#e5e5e5" d="M 115.5,212.5 C 115.027,213.906 114.027,214.573 112.5,214.5C 112.973,213.094 113.973,212.427 115.5,212.5 Z"/></g>
<g><path style="opacity:0.906" fill="#779360" d="M 269.5,205.5 C 269.408,210.365 268.075,214.699 265.5,218.5C 266.057,213.835 267.39,209.502 269.5,205.5 Z"/></g>
<g><path style="opacity:0.988" fill="#7b9564" d="M 136.5,210.5 C 136.5,211.833 136.5,213.167 136.5,214.5C 136.034,218.162 136.701,221.495 138.5,224.5C 135.862,223.758 134.529,221.925 134.5,219C 134.912,215.973 135.579,213.14 136.5,210.5 Z"/></g>
<g><path style="opacity:1" fill="#87a46f" d="M 226.5,203.5 C 226.56,202.957 226.893,202.624 227.5,202.5C 228.815,207.986 228.815,213.32 227.5,218.5C 226.833,218.5 226.167,218.5 225.5,218.5C 227.055,215.981 227.722,213.148 227.5,210C 227.496,207.639 227.163,205.473 226.5,203.5 Z"/></g>
<g><path style="opacity:1" fill="#65834a" d="M 283.5,207.5 C 282.258,215.473 280.258,223.14 277.5,230.5C 278.351,223.444 279.351,216.444 280.5,209.5C 280.973,208.094 281.973,207.427 283.5,207.5 Z"/></g>
<g><path style="opacity:0.047" fill="#d7d7d7" d="M 104.5,219.5 C 102.421,221.873 99.7541,223.206 96.5,223.5C 98.8485,221.659 101.515,220.326 104.5,219.5 Z"/></g>
<g><path style="opacity:0.224" fill="#b4d3a7" d="M 218.5,217.5 C 218.5,218.5 218.5,219.5 218.5,220.5C 219.5,220.5 220.5,220.5 221.5,220.5C 220.432,221.434 219.099,221.768 217.5,221.5C 217.232,219.901 217.566,218.568 218.5,217.5 Z"/></g>
<g><path style="opacity:1" fill="#4b702f" d="M 366.5,198.5 C 365.481,200.54 365.481,202.54 366.5,204.5C 367.167,203.5 367.833,202.5 368.5,201.5C 371.987,202.522 373.32,204.855 372.5,208.5C 372.665,211.518 372.498,214.518 372,217.5C 369.973,218.693 368.473,220.36 367.5,222.5C 368.628,223.262 369.795,223.929 371,224.5C 373.584,234.67 375.084,245.003 375.5,255.5C 373.061,252.69 372.395,249.523 373.5,246C 371.319,239.718 370.152,233.218 370,226.5C 369.667,226.167 369.333,225.833 369,225.5C 366.104,227.533 362.937,228.866 359.5,229.5C 360.985,226.917 363.318,225.584 366.5,225.5C 366.719,224.325 366.386,223.325 365.5,222.5C 362.834,223.738 360.168,223.738 357.5,222.5C 358.681,220.802 358.681,219.135 357.5,217.5C 356.076,219.718 354.076,221.218 351.5,222C 350.707,223.085 350.04,224.252 349.5,225.5C 348.042,226.782 346.708,226.782 345.5,225.5C 347.017,225.489 348.184,224.823 349,223.5C 354.856,215.1 360.689,206.767 366.5,198.5 Z M 369.5,203.5 C 370.906,208.15 370.572,212.817 368.5,217.5C 366.255,219.623 363.588,220.623 360.5,220.5C 363.023,214.627 366.023,208.96 369.5,203.5 Z"/></g>
<g><path style="opacity:0.02" fill="#e1e1e1" d="M 94.5,224.5 C 90.9155,226.806 86.9155,228.139 82.5,228.5C 86.2157,226.595 90.2157,225.261 94.5,224.5 Z"/></g>
<g><path style="opacity:1" fill="#517432" d="M 164.5,221.5 C 164.884,219.335 164.217,217.668 162.5,216.5C 158.756,218.121 155.256,220.121 152,222.5C 149.678,230.666 147.178,238.666 144.5,246.5C 144.3,238.795 145.633,231.462 148.5,224.5C 147.538,222.117 148.538,221.117 151.5,221.5C 150.777,217.549 152.11,216.215 155.5,217.5C 157.771,216.729 159.938,215.729 162,214.5C 163.326,214.755 164.326,215.422 165,216.5C 165.78,218.387 165.613,220.054 164.5,221.5 Z"/></g>
<g><path style="opacity:0.984" fill="#637f48" d="M 212.5,216.5 C 211.302,222.53 207.636,226.03 201.5,227C 202.774,227.977 202.774,228.811 201.5,229.5C 200.685,228.163 199.518,227.163 198,226.5C 197.517,225.552 197.351,224.552 197.5,223.5C 199.936,223.317 202.103,223.984 204,225.5C 206.849,222.426 209.683,219.426 212.5,216.5 Z"/></g>
<g><path style="opacity:1" fill="#2e5e08" d="M 218.5,216.5 C 218.5,216.833 218.5,217.167 218.5,217.5C 217.566,218.568 217.232,219.901 217.5,221.5C 219.099,221.768 220.432,221.434 221.5,220.5C 222.514,219.326 223.847,218.66 225.5,218.5C 226.167,218.5 226.833,218.5 227.5,218.5C 226.729,220.114 225.729,221.614 224.5,223C 224.667,223.5 224.833,224 225,224.5C 225.977,223.226 226.811,223.226 227.5,224.5C 226.833,224.5 226.5,224.833 226.5,225.5C 222.465,225.33 219.131,226.663 216.5,229.5C 210.704,228.705 206.038,230.539 202.5,235C 203.423,237.041 203.756,239.208 203.5,241.5C 201.857,241.48 200.524,242.147 199.5,243.5C 198.914,243.291 198.414,242.957 198,242.5C 197.751,243.624 197.251,244.624 196.5,245.5C 196.167,244.833 195.833,244.167 195.5,243.5C 196.39,242.045 196.39,240.711 195.5,239.5C 197.698,236.171 199.698,232.837 201.5,229.5C 202.774,228.811 202.774,227.977 201.5,227C 207.636,226.03 211.302,222.53 212.5,216.5C 213.669,213.489 215.336,210.822 217.5,208.5C 218.423,207.697 219.423,207.53 220.5,208C 220.25,210.69 219.583,213.523 218.5,216.5 Z"/></g>
<g><path style="opacity:1" fill="#748e5c" d="M 226.5,225.5 C 223.63,227.794 220.297,229.128 216.5,229.5C 219.131,226.663 222.465,225.33 226.5,225.5 Z"/></g>
<g><path style="opacity:1" fill="#4f6e33" d="M 228.5,225.5 C 229.117,225.611 229.617,225.944 230,226.5C 230.651,235.857 231.484,245.19 232.5,254.5C 230.524,247.415 229.19,240.081 228.5,232.5C 228.5,230.167 228.5,227.833 228.5,225.5 Z"/></g>
<g><path style="opacity:1" fill="#222222" d="M 66.5,228.5 C 67.1157,229.202 67.1157,230.202 66.5,231.5C 54.1572,232.757 41.8239,232.757 29.5,231.5C 29.5,230.5 29.5,229.5 29.5,228.5C 41.8285,229.734 54.1619,229.734 66.5,228.5 Z"/></g>
<g><path style="opacity:0.043" fill="#dbdbdb" d="M 79.5,229.5 C 73.7638,231.347 67.7638,232.513 61.5,233C 51.5,233.667 41.5,233.667 31.5,233C 30.5842,232.722 29.9175,232.222 29.5,231.5C 41.8239,232.757 54.1572,232.757 66.5,231.5C 70.7144,230.298 75.0478,229.631 79.5,229.5 Z"/></g>
<g><path style="opacity:0.176" fill="#c6d4b2" d="M 226.5,225.5 C 226.5,224.833 226.833,224.5 227.5,224.5C 228.167,224.5 228.5,224.833 228.5,225.5C 228.5,227.833 228.5,230.167 228.5,232.5C 227.833,230.167 227.167,227.833 226.5,225.5 Z"/></g>
<g><path style="opacity:1" fill="#2b5d04" d="M 280.5,209.5 C 279.351,216.444 278.351,223.444 277.5,230.5C 276.5,230.5 275.5,230.5 274.5,230.5C 274.335,234.182 274.501,237.848 275,241.5C 275.5,242 276,242.5 276.5,243C 280.677,243.458 284.843,243.292 289,242.5C 291.3,242.494 293.466,242.994 295.5,244C 290.401,244.93 285.401,246.263 280.5,248C 278.624,248.918 277.624,250.418 277.5,252.5C 274.063,252.552 271.063,253.719 268.5,256C 267.331,257.836 265.664,259.002 263.5,259.5C 262.614,260.325 262.281,261.325 262.5,262.5C 259.763,262.401 257.096,262.735 254.5,263.5C 253.532,260.555 253.366,257.555 254,254.5C 258.324,250.511 260.491,245.511 260.5,239.5C 261.972,237.384 263.139,235.051 264,232.5C 264.435,227.816 264.935,223.149 265.5,218.5C 268.075,214.699 269.408,210.365 269.5,205.5C 269.723,201.838 270.723,198.505 272.5,195.5C 273.496,195.586 274.329,195.252 275,194.5C 275.406,191.085 277.072,188.418 280,186.5C 280.798,188.259 280.631,189.926 279.5,191.5C 278.325,190.145 277.325,190.312 276.5,192C 277.227,193.399 277.727,194.899 278,196.5C 278.893,195.289 279.726,195.289 280.5,196.5C 279.653,199.554 278.653,202.554 277.5,205.5C 278.172,207.16 279.172,208.493 280.5,209.5 Z"/></g>
<g><path style="opacity:1" fill="#6a8950" d="M 358.5,229.5 C 354.299,231.029 350.966,233.696 348.5,237.5C 348.807,231.202 352.14,228.536 358.5,229.5 Z"/></g>
<g><path style="opacity:0.898" fill="#8ba373" d="M 138.5,229.5 C 138.59,232.152 137.924,234.485 136.5,236.5C 136.41,233.848 137.076,231.515 138.5,229.5 Z"/></g>
<g><path style="opacity:1" fill="#517633" d="M 216.5,229.5 C 214.611,230.322 212.611,231.155 210.5,232C 208.024,235.145 205.69,238.312 203.5,241.5C 203.756,239.208 203.423,237.041 202.5,235C 206.038,230.539 210.704,228.705 216.5,229.5 Z"/></g>
<g><path style="opacity:1" fill="#58773b" d="M 164.5,222.5 C 164.503,233.208 162.17,243.208 157.5,252.5C 158.592,245.87 159.758,239.203 161,232.5C 161.701,228.891 162.868,225.558 164.5,222.5 Z"/></g>
<g><path style="opacity:1" fill="#4c6f2f" d="M 201.5,229.5 C 199.698,232.837 197.698,236.171 195.5,239.5C 196.39,240.711 196.39,242.045 195.5,243.5C 195.833,244.167 196.167,244.833 196.5,245.5C 197.251,244.624 197.751,243.624 198,242.5C 198.414,242.957 198.914,243.291 199.5,243.5C 200.524,242.147 201.857,241.48 203.5,241.5C 201.304,246.901 197.471,248.901 192,247.5C 191.654,245.782 191.154,244.115 190.5,242.5C 193.473,237.539 197.139,233.205 201.5,229.5 Z"/></g>
<g><path style="opacity:1" fill="#4b6e2d" d="M 306.5,218.5 C 306.665,221.85 306.498,225.183 306,228.5C 304.013,234.397 301.846,240.064 299.5,245.5C 304.833,246.167 304.833,246.833 299.5,247.5C 299.5,248.5 299.5,249.5 299.5,250.5C 298.5,250.5 297.5,250.5 296.5,250.5C 296.539,249.417 296.873,248.417 297.5,247.5C 297,247.167 296.5,246.833 296,246.5C 289.581,247.806 283.415,249.806 277.5,252.5C 277.624,250.418 278.624,248.918 280.5,248C 285.401,246.263 290.401,244.93 295.5,244C 293.466,242.994 291.3,242.494 289,242.5C 284.843,243.292 280.677,243.458 276.5,243C 276,242.5 275.5,242 275,241.5C 274.501,237.848 274.335,234.182 274.5,230.5C 275.5,230.5 276.5,230.5 277.5,230.5C 276.39,234.051 276.39,237.551 277.5,241C 284.847,240.451 292.18,240.618 299.5,241.5C 301.261,233.558 303.594,225.891 306.5,218.5 Z"/></g>
<g><path style="opacity:1" fill="#557537" d="M 348.5,237.5 C 346.778,241.721 344.112,245.221 340.5,248C 337.798,248.607 335.132,248.44 332.5,247.5C 327.815,249.172 323.149,250.839 318.5,252.5C 318.389,251.883 318.056,251.383 317.5,251C 318.833,250.667 320.167,250.333 321.5,250C 320.542,248.853 320.875,247.853 322.5,247C 328.195,246.374 333.862,246.541 339.5,247.5C 339.5,246.5 339.5,245.5 339.5,244.5C 342.47,244.254 343.803,242.588 343.5,239.5C 344.5,239.5 345.5,239.5 346.5,239.5C 346.343,238.127 346.51,236.793 347,235.5C 347.278,236.416 347.778,237.082 348.5,237.5 Z"/></g>
<g><path style="opacity:1" fill="#537636" d="M 189.5,210.5 C 186.73,211.31 184.563,212.977 183,215.5C 179.822,228.056 177.156,240.722 175,253.5C 173.303,257.698 170.136,260.031 165.5,260.5C 166.598,259.603 166.598,258.77 165.5,258C 167.676,257.837 169.509,257.004 171,255.5C 171.175,252.843 171.008,250.176 170.5,247.5C 172.124,247.64 173.29,246.973 174,245.5C 176.21,235.204 178.21,224.871 180,214.5C 182.239,211.038 185.406,209.705 189.5,210.5 Z"/></g>
<g><path style="opacity:1" fill="#2e5e08" d="M 312.5,207.5 C 313.586,207.62 314.253,208.287 314.5,209.5C 314.913,212.682 315.746,215.682 317,218.5C 317.667,217.167 318.667,216.167 320,215.5C 320.497,218.146 320.664,220.813 320.5,223.5C 318.753,224.981 317.586,226.981 317,229.5C 316.499,233.51 315.999,237.51 315.5,241.5C 316.5,241.5 317.5,241.5 318.5,241.5C 323.874,241.477 329.207,240.977 334.5,240C 337.001,236.333 340.001,233.166 343.5,230.5C 344.791,229.458 344.791,228.292 343.5,227C 344.044,226.283 344.711,225.783 345.5,225.5C 346.708,226.782 348.042,226.782 349.5,225.5C 350.04,224.252 350.707,223.085 351.5,222C 354.076,221.218 356.076,219.718 357.5,217.5C 358.681,219.135 358.681,220.802 357.5,222.5C 360.168,223.738 362.834,223.738 365.5,222.5C 366.386,223.325 366.719,224.325 366.5,225.5C 363.318,225.584 360.985,226.917 359.5,229.5C 359.167,229.5 358.833,229.5 358.5,229.5C 352.14,228.536 348.807,231.202 348.5,237.5C 347.778,237.082 347.278,236.416 347,235.5C 346.51,236.793 346.343,238.127 346.5,239.5C 345.5,239.5 344.5,239.5 343.5,239.5C 343.803,242.588 342.47,244.254 339.5,244.5C 339.5,245.5 339.5,246.5 339.5,247.5C 333.862,246.541 328.195,246.374 322.5,247C 320.875,247.853 320.542,248.853 321.5,250C 320.167,250.333 318.833,250.667 317.5,251C 318.056,251.383 318.389,251.883 318.5,252.5C 316.073,252.523 313.74,253.023 311.5,254C 310.663,255.011 310.33,256.178 310.5,257.5C 309.738,259.262 308.404,260.262 306.5,260.5C 302.863,261.497 299.196,261.997 295.5,262C 293.759,258.909 293.426,255.742 294.5,252.5C 294.833,251.5 295.5,250.833 296.5,250.5C 297.5,250.5 298.5,250.5 299.5,250.5C 299.5,249.5 299.5,248.5 299.5,247.5C 304.833,246.833 304.833,246.167 299.5,245.5C 301.846,240.064 304.013,234.397 306,228.5C 306.498,225.183 306.665,221.85 306.5,218.5C 308.694,215.644 310.027,212.311 310.5,208.5C 310.957,207.702 311.624,207.369 312.5,207.5 Z"/></g>
<g><path style="opacity:1" fill="#5f7c44" d="M 320.5,223.5 C 319.608,228.012 318.608,232.512 317.5,237C 317.605,238.592 317.939,240.092 318.5,241.5C 317.5,241.5 316.5,241.5 315.5,241.5C 315.999,237.51 316.499,233.51 317,229.5C 317.586,226.981 318.753,224.981 320.5,223.5 Z"/></g>
<g><path style="opacity:0.998" fill="#7a9463" d="M 345.5,225.5 C 344.711,225.783 344.044,226.283 343.5,227C 344.791,228.292 344.791,229.458 343.5,230.5C 342.611,228.264 341.278,226.264 339.5,224.5C 341.799,223.243 343.799,223.577 345.5,225.5 Z"/></g>
<g><path style="opacity:1" fill="#5e7c46" d="M 136.5,236.5 C 136.241,240.24 136.574,243.906 137.5,247.5C 139.045,248.452 140.712,248.785 142.5,248.5C 142.343,247.127 142.51,245.793 143,244.5C 143.278,245.416 143.778,246.082 144.5,246.5C 142.511,251.401 139.011,252.734 134,250.5C 133.757,245.557 134.59,240.89 136.5,236.5 Z"/></g>
<g><path style="opacity:1" fill="#57773d" d="M 265.5,218.5 C 264.935,223.149 264.435,227.816 264,232.5C 263.139,235.051 261.972,237.384 260.5,239.5C 260.491,245.511 258.324,250.511 254,254.5C 253.366,257.555 253.532,260.555 254.5,263.5C 253.503,263.53 252.836,263.03 252.5,262C 251.29,258.826 251.29,255.659 252.5,252.5C 254.718,251.076 256.218,249.076 257,246.5C 259.236,236.864 262.07,227.531 265.5,218.5 Z"/></g>
<g><path style="opacity:1" fill="#66874d" d="M 318.5,252.5 C 315.841,254.164 313.175,255.83 310.5,257.5C 310.33,256.178 310.663,255.011 311.5,254C 313.74,253.023 316.073,252.523 318.5,252.5 Z"/></g>
<g><path style="opacity:0.476" fill="#b2c59f" d="M 384.5,246.5 C 385.647,250.646 385.814,254.98 385,259.5C 384.617,258.944 384.117,258.611 383.5,258.5C 383.5,258.167 383.5,257.833 383.5,257.5C 384.482,254.038 384.815,250.371 384.5,246.5 Z"/></g>
<g><path style="opacity:1" fill="#678351" d="M 241.5,242.5 C 242.489,247.975 242.822,253.642 242.5,259.5C 237.261,261.547 233.928,259.881 232.5,254.5C 235.065,256.688 238.065,257.688 241.5,257.5C 241.5,252.5 241.5,247.5 241.5,242.5 Z"/></g>
<g><path style="opacity:1" fill="#6e8956" d="M 375.5,255.5 C 377.913,257.051 380.579,257.717 383.5,257.5C 383.5,257.833 383.5,258.167 383.5,258.5C 379.558,261.517 376.891,260.517 375.5,255.5 Z"/></g>
<g><path style="opacity:1" fill="#6a864f" d="M 277.5,252.5 C 272.68,256.078 267.68,259.412 262.5,262.5C 262.281,261.325 262.614,260.325 263.5,259.5C 265.664,259.002 267.331,257.836 268.5,256C 271.063,253.719 274.063,252.552 277.5,252.5 Z"/></g>
<g><path style="opacity:0.988" fill="#829969" d="M 157.5,253.5 C 156.167,259.5 158.5,261.833 164.5,260.5C 163.48,261.954 162.313,262.287 161,261.5C 160.163,263.007 158.996,263.507 157.5,263C 156.182,259.731 156.182,256.565 157.5,253.5 Z"/></g>
<g><path style="opacity:1" fill="#6d8853" d="M 294.5,252.5 C 293.426,255.742 293.759,258.909 295.5,262C 299.196,261.997 302.863,261.497 306.5,260.5C 303.767,263.367 300.434,264.867 296.5,265C 293.545,262.986 292.212,260.153 292.5,256.5C 292.585,254.667 293.252,253.334 294.5,252.5 Z"/></g>
<g><path style="opacity:1" fill="#7f9662" d="M 262.5,262.5 C 260.78,263.864 258.78,264.864 256.5,265.5C 255.478,265.145 254.811,264.478 254.5,263.5C 257.096,262.735 259.763,262.401 262.5,262.5 Z"/></g>
<g><path style="opacity:0.431" fill="#bbbbbb" d="M 111.5,284.5 C 111.5,284.167 111.5,283.833 111.5,283.5C 110.652,282.375 109.652,282.375 108.5,283.5C 108.631,282.761 108.464,282.094 108,281.5C 107.79,283.058 107.29,284.391 106.5,285.5C 106.5,283.833 106.5,282.167 106.5,280.5C 108.833,280.5 111.167,280.5 113.5,280.5C 113.771,282.38 113.104,283.713 111.5,284.5 Z M 111.5,283.5 C 110.348,284.625 109.348,284.625 108.5,283.5C 109.652,282.375 110.652,282.375 111.5,283.5 Z"/></g>
<g><path style="opacity:0.106" fill="#c7c7c7" d="M 333.5,285.5 C 333.5,284.833 333.167,284.5 332.5,284.5C 333.463,283.637 333.463,282.97 332.5,282.5C 331.702,282.957 331.369,283.624 331.5,284.5C 330.732,283.737 330.232,282.737 330,281.5C 329.601,281.728 329.435,282.062 329.5,282.5C 328.957,282.44 328.624,282.107 328.5,281.5C 330.743,280.526 333.076,280.192 335.5,280.5C 335.598,282.553 334.931,284.22 333.5,285.5 Z M 332.5,284.5 C 332.167,284.5 331.833,284.5 331.5,284.5C 331.369,283.624 331.702,282.957 332.5,282.5C 333.463,282.97 333.463,283.637 332.5,284.5 Z"/></g>
<g><path style="opacity:0.51" fill="#8c8c8c" d="M 163.5,280.5 C 166.167,280.5 168.833,280.5 171.5,280.5C 171.881,282.942 171.214,283.609 169.5,282.5C 168.072,284.655 167.739,286.821 168.5,289C 166.833,289.667 165.167,289.667 163.5,289C 165.136,287.566 166.136,285.733 166.5,283.5C 166.062,282.494 165.396,282.494 164.5,283.5C 163.614,282.675 163.281,281.675 163.5,280.5 Z"/></g>
<g><path style="opacity:0.649" fill="#909090" d="M 263.5,280.5 C 265.792,280.244 267.959,280.577 270,281.5C 269.594,283.87 269.428,286.204 269.5,288.5C 266.894,289.652 264.227,289.818 261.5,289C 263.7,286.378 264.366,283.545 263.5,280.5 Z M 266.5,282.5 C 269.001,282.511 269.168,283.178 267,284.5C 266.536,283.906 266.369,283.239 266.5,282.5 Z M 265.5,285.5 C 267.76,286.238 267.927,287.238 266,288.5C 265.517,287.552 265.351,286.552 265.5,285.5 Z"/></g>
<g><path style="opacity:0.573" fill="#9d9d9d" d="M 119.5,280.5 C 121.5,280.5 123.5,280.5 125.5,280.5C 125.682,282.591 125.348,284.591 124.5,286.5C 126.461,287.848 126.628,289.181 125,290.5C 123.667,289.833 122.667,288.833 122,287.5C 120.933,289.283 119.433,289.783 117.5,289C 119.179,286.435 119.846,283.602 119.5,280.5 Z"/></g>
<g><path style="opacity:0.792" fill="#8a8a8a" d="M 285.5,280.5 C 288.685,280.02 291.519,280.686 294,282.5C 293.659,289.14 290.159,291.306 283.5,289C 285.7,286.378 286.366,283.545 285.5,280.5 Z M 288.5,282.5 C 289.5,282.5 290.5,282.5 291.5,282.5C 291.978,285.278 290.978,287.278 288.5,288.5C 287.481,286.54 287.481,284.54 288.5,282.5 Z"/></g>
<g><path style="opacity:0.541" fill="#989898" d="M 370.5,281.5 C 372.56,280.189 374.726,280.189 377,281.5C 377.332,284.69 375.832,286.69 372.5,287.5C 372.709,288.086 373.043,288.586 373.5,289C 372.167,289.667 370.833,289.667 369.5,289C 370.955,286.442 371.288,283.942 370.5,281.5 Z M 373.5,282.5 C 376.001,282.511 376.168,283.178 374,284.5C 373.536,283.906 373.369,283.239 373.5,282.5 Z"/></g>
<g><path style="opacity:0.667" fill="#909090" d="M 135.5,280.5 C 141.067,279.753 142.9,282.087 141,287.5C 134.63,292.148 131.963,290.482 133,282.5C 133.995,281.934 134.828,281.267 135.5,280.5 Z M 135.5,282.5 C 136.833,282.5 138.167,282.5 139.5,282.5C 139.978,285.278 138.978,287.278 136.5,288.5C 135.28,288.113 134.613,287.28 134.5,286C 134.989,284.862 135.322,283.695 135.5,282.5 Z"/></g>
<g><path style="opacity:0.529" fill="#868686" d="M 331.5,284.5 C 331.833,284.5 332.167,284.5 332.5,284.5C 333.167,284.5 333.5,284.833 333.5,285.5C 336.052,287.163 335.886,288.83 333,290.5C 330.931,289.736 328.764,289.236 326.5,289C 328.022,287.084 329.022,284.917 329.5,282.5C 329.435,282.062 329.601,281.728 330,281.5C 330.232,282.737 330.732,283.737 331.5,284.5 Z M 330.5,285.5 C 332.465,285.948 332.798,286.948 331.5,288.5C 330.614,287.675 330.281,286.675 330.5,285.5 Z"/></g>
<g><path style="opacity:0.766" fill="#767676" d="M 108.5,283.5 C 109.348,284.625 110.348,284.625 111.5,283.5C 111.5,283.833 111.5,284.167 111.5,284.5C 111.741,287.999 110.908,288.332 109,285.5C 108.51,286.793 108.343,288.127 108.5,289.5C 107.127,289.657 105.793,289.49 104.5,289C 105.305,287.887 105.972,286.721 106.5,285.5C 107.29,284.391 107.79,283.058 108,281.5C 108.464,282.094 108.631,282.761 108.5,283.5 Z"/></g>
<g><path style="opacity:0.561" fill="#969696" d="M 148.5,280.5 C 151.595,280.626 153.428,282.293 154,285.5C 154.494,283.866 154.66,282.199 154.5,280.5C 155.675,280.281 156.675,280.614 157.5,281.5C 156.653,284.554 155.653,287.554 154.5,290.5C 153.081,288.664 151.914,286.664 151,284.5C 150.691,285.766 150.191,286.933 149.5,288C 149.833,288.333 150.167,288.667 150.5,289C 149.167,289.667 147.833,289.667 146.5,289C 148.776,286.437 149.443,283.604 148.5,280.5 Z"/></g>
<g><path style="opacity:0.025" fill="#dfdfdf" d="M 181.5,284.5 C 181.842,283.662 182.508,283.328 183.5,283.5C 184.096,285.398 184.096,287.065 183.5,288.5C 183.5,287.833 183.167,287.5 182.5,287.5C 182.5,287.167 182.5,286.833 182.5,286.5C 182.672,285.508 182.338,284.842 181.5,284.5 Z"/></g>
<g><path style="opacity:0.745" fill="#919191" d="M 191.5,280.5 C 194.595,280.626 196.428,282.293 197,285.5C 197.72,283.888 197.554,282.388 196.5,281C 197.944,280.219 199.277,280.386 200.5,281.5C 199.48,284.605 198.313,287.605 197,290.5C 195.748,288.999 194.748,287.332 194,285.5C 192.383,286.536 192.216,287.703 193.5,289C 192.167,289.667 190.833,289.667 189.5,289C 191.179,286.435 191.846,283.602 191.5,280.5 Z"/></g>
<g><path style="opacity:0.812" fill="#939393" d="M 230.5,280.5 C 231.5,280.5 232.5,280.5 233.5,280.5C 233.592,287.008 234.258,287.008 235.5,280.5C 236.873,280.343 238.207,280.51 239.5,281C 238.078,286.355 238.744,286.689 241.5,282C 241.167,281.667 240.833,281.333 240.5,281C 241.833,280.333 243.167,280.333 244.5,281C 242.457,284.253 240.29,287.42 238,290.5C 237.138,288.913 236.471,287.246 236,285.5C 235.333,286.833 234.667,288.167 234,289.5C 233.333,290.833 232.667,290.833 232,289.5C 231.304,286.522 230.804,283.522 230.5,280.5 Z"/></g>
<g><path style="opacity:0.025" fill="#dfdfdf" d="M 253.5,284.5 C 253.842,283.662 254.508,283.328 255.5,283.5C 256.096,285.398 256.096,287.065 255.5,288.5C 255.5,287.833 255.167,287.5 254.5,287.5C 254.5,287.167 254.5,286.833 254.5,286.5C 254.672,285.508 254.338,284.842 253.5,284.5 Z"/></g>
<g><path style="opacity:0.014" fill="#e5e5e5" d="M 387.5,284.5 C 387.842,283.662 388.508,283.328 389.5,283.5C 390.096,285.398 390.096,287.065 389.5,288.5C 389.062,287.494 388.396,287.494 387.5,288.5C 387.5,287.833 387.5,287.167 387.5,286.5C 388.833,285.833 388.833,285.167 387.5,284.5 Z"/></g>
<g><path style="opacity:0.588" fill="#979797" d="M 206.5,281.5 C 213.738,278.906 216.238,281.239 214,288.5C 211.263,289.61 208.429,289.777 205.5,289C 206.955,286.442 207.288,283.942 206.5,281.5 Z M 209.5,282.5 C 210.5,282.5 211.5,282.5 212.5,282.5C 212.923,285.288 211.923,287.288 209.5,288.5C 209.08,286.674 209.08,284.674 209.5,282.5 Z"/></g>
<g><path style="opacity:0.804" fill="#959595" d="M 313.5,281.5 C 314.568,280.566 315.901,280.232 317.5,280.5C 317.592,287.008 318.258,287.008 319.5,280.5C 320.873,280.343 322.207,280.51 323.5,281C 321.457,284.253 319.29,287.42 317,290.5C 315.893,287.416 314.727,284.416 313.5,281.5 Z"/></g>
<g><path style="opacity:0.588" fill="#858585" d="M 183.5,283.5 C 182.614,282.224 181.614,282.224 180.5,283.5C 180.624,284.107 180.957,284.44 181.5,284.5C 182.338,284.842 182.672,285.508 182.5,286.5C 180.014,285.223 179.347,285.889 180.5,288.5C 181.183,288.137 181.85,287.804 182.5,287.5C 183.167,287.5 183.5,287.833 183.5,288.5C 183.631,289.239 183.464,289.906 183,290.5C 180.931,289.736 178.764,289.236 176.5,289C 178,286.379 178.334,283.712 177.5,281C 179.81,280.503 182.143,280.337 184.5,280.5C 184.737,281.791 184.404,282.791 183.5,283.5 Z"/></g>
<g><path style="opacity:0.58" fill="#848484" d="M 255.5,283.5 C 254.614,282.224 253.614,282.224 252.5,283.5C 252.624,284.107 252.957,284.44 253.5,284.5C 254.338,284.842 254.672,285.508 254.5,286.5C 252.014,285.223 251.347,285.889 252.5,288.5C 253.183,288.137 253.85,287.804 254.5,287.5C 255.167,287.5 255.5,287.833 255.5,288.5C 255.631,289.239 255.464,289.906 255,290.5C 252.931,289.736 250.764,289.236 248.5,289C 250,286.379 250.334,283.712 249.5,281C 251.81,280.503 254.143,280.337 256.5,280.5C 256.737,281.791 256.404,282.791 255.5,283.5 Z"/></g>
<g><path style="opacity:0.583" fill="#939393" d="M 306.5,283.5 C 308.548,290.493 306.215,292.326 299.5,289C 300.991,286.379 301.658,283.545 301.5,280.5C 303.833,280.5 306.167,280.5 308.5,280.5C 308.715,282.179 308.048,283.179 306.5,283.5 Z M 303.5,285.5 C 305.625,286.368 305.791,287.368 304,288.5C 302.317,287.824 302.15,286.824 303.5,285.5 Z M 306.5,283.5 C 305.425,284.562 304.425,284.562 303.5,283.5C 304.614,282.224 305.614,282.224 306.5,283.5 Z"/></g>
<g><path style="opacity:0.643" fill="#909090" d="M 342.5,280.5 C 343.978,280.238 345.311,280.571 346.5,281.5C 344.48,283.599 344.146,285.933 345.5,288.5C 346.167,287.833 346.833,287.167 347.5,286.5C 348.823,288.204 348.49,289.537 346.5,290.5C 344.556,289.811 342.556,289.311 340.5,289C 342.179,286.435 342.846,283.602 342.5,280.5 Z"/></g>
<g><path style="opacity:0.671" fill="#959595" d="M 357.5,280.5 C 363.235,280.004 365.068,282.337 363,287.5C 359.21,291.671 356.377,291.171 354.5,286C 354.613,283.601 355.613,281.768 357.5,280.5 Z M 358.5,282.5 C 359.5,282.5 360.5,282.5 361.5,282.5C 361.978,285.278 360.978,287.278 358.5,288.5C 356.262,286.647 356.262,284.647 358.5,282.5 Z"/></g>
<g><path style="opacity:0.594" fill="#888888" d="M 389.5,283.5 C 388.614,282.224 387.614,282.224 386.5,283.5C 386.624,284.107 386.957,284.44 387.5,284.5C 388.833,285.167 388.833,285.833 387.5,286.5C 386.698,285.115 386.031,285.282 385.5,287C 385.836,288.03 386.503,288.53 387.5,288.5C 388.396,287.494 389.062,287.494 389.5,288.5C 389.631,289.376 389.298,290.043 388.5,290.5C 386.556,289.811 384.556,289.311 382.5,289C 384,286.379 384.334,283.712 383.5,281C 385.81,280.503 388.143,280.337 390.5,280.5C 390.737,281.791 390.404,282.791 389.5,283.5 Z"/></g>
<g><path style="opacity:0.557" fill="#9d9d9d" d="M 397.5,280.5 C 403.911,279.219 405.578,281.219 402.5,286.5C 403.167,287.5 403.833,288.5 404.5,289.5C 402.019,290.492 400.519,289.492 400,286.5C 399.517,287.448 399.351,288.448 399.5,289.5C 398.127,289.657 396.793,289.49 395.5,289C 397.7,286.378 398.366,283.545 397.5,280.5 Z"/></g>
</svg>
