<?xml version="1.0" encoding="UTF-8"?>
<!DOCTYPE svg PUBLIC "-//W3C//DTD SVG 1.1//EN" "http://www.w3.org/Graphics/SVG/1.1/DTD/svg11.dtd">
<svg xmlns="http://www.w3.org/2000/svg" version="1.1" width="500px" height="500px" style="shape-rendering:geometricPrecision; text-rendering:geometricPrecision; image-rendering:optimizeQuality; fill-rule:evenodd; clip-rule:evenodd" xmlns:xlink="http://www.w3.org/1999/xlink">
<g><path style="opacity:0.999" fill="#4e4e4e" d="M 102.5,109.5 C 101.127,109.343 99.7932,109.51 98.5,110C 99.056,110.383 99.3893,110.883 99.5,111.5C 93.7335,109.023 87.7335,107.356 81.5,106.5C 79.5504,107.372 77.5504,108.039 75.5,108.5C 76.2341,107.292 76.5674,105.959 76.5,104.5C 85.8404,102.332 94.5071,103.999 102.5,109.5 Z"/></g>
<g><path style="opacity:1" fill="#4c4c4c" d="M 76.5,104.5 C 76.5674,105.959 76.2341,107.292 75.5,108.5C 72.3769,111.002 70.7102,114.335 70.5,118.5C 71.4226,121.447 72.0893,124.447 72.5,127.5C 70.9519,127.821 70.2852,128.821 70.5,130.5C 67.6936,124.909 66.8602,118.909 68,112.5C 69.4129,108.252 72.2462,105.585 76.5,104.5 Z"/></g>
<g><path style="opacity:1" fill="#303030" d="M 184.5,106.5 C 185.11,107.391 185.443,108.391 185.5,109.5C 182.429,109.682 179.096,110.015 175.5,110.5C 174.448,110.649 173.448,110.483 172.5,110C 173.381,109.292 174.047,108.458 174.5,107.5C 177.728,106.586 181.061,106.253 184.5,106.5 Z"/></g>
<g><path style="opacity:0.29" fill="#b3b3b3" d="M 184.5,106.5 C 186.552,107.053 186.885,108.053 185.5,109.5C 185.443,108.391 185.11,107.391 184.5,106.5 Z"/></g>
<g><path style="opacity:0.999" fill="#505050" d="M 174.5,107.5 C 174.047,108.458 173.381,109.292 172.5,110C 173.448,110.483 174.448,110.649 175.5,110.5C 171.209,113.123 167.543,116.456 164.5,120.5C 163.895,118.519 162.895,118.185 161.5,119.5C 163.916,113.453 168.249,109.453 174.5,107.5 Z"/></g>
<g><path style="opacity:0.995" fill="#444444" d="M 102.5,109.5 C 108.348,112.015 113.348,115.682 117.5,120.5C 117.649,121.552 117.483,122.552 117,123.5C 116.082,121.624 114.582,120.624 112.5,120.5C 108.419,117.077 104.086,114.077 99.5,111.5C 99.3893,110.883 99.056,110.383 98.5,110C 99.7932,109.51 101.127,109.343 102.5,109.5 Z"/></g>
<g><path style="opacity:1" fill="#4a4a4a" d="M 164.5,120.5 C 163.065,123.711 161.898,127.045 161,130.5C 160.276,139.041 159.109,147.375 157.5,155.5C 157.975,152.918 157.308,150.918 155.5,149.5C 155.909,143.498 156.409,137.498 157,131.5C 157.441,127 158.941,123 161.5,119.5C 162.895,118.185 163.895,118.519 164.5,120.5 Z"/></g>
<g><path style="opacity:0.999" fill="#4e4e4e" d="M 112.5,120.5 C 114.582,120.624 116.082,121.624 117,123.5C 117.483,122.552 117.649,121.552 117.5,120.5C 121.592,124.258 124.926,128.591 127.5,133.5C 126.542,133.047 125.708,132.381 125,131.5C 124.517,132.448 124.351,133.448 124.5,134.5C 120.904,129.564 116.904,124.897 112.5,120.5 Z"/></g>
<g><path style="opacity:0.997" fill="#434343" d="M 127.5,133.5 C 130.593,137.347 132.926,141.68 134.5,146.5C 133.883,146.389 133.383,146.056 133,145.5C 132.51,146.793 132.343,148.127 132.5,149.5C 130.119,144.408 127.452,139.408 124.5,134.5C 124.351,133.448 124.517,132.448 125,131.5C 125.708,132.381 126.542,133.047 127.5,133.5 Z"/></g>
<g><path style="opacity:0.998" fill="#404040" d="M 72.5,127.5 C 76.0744,133.749 80.0744,139.749 84.5,145.5C 83.5,145.833 82.8333,146.5 82.5,147.5C 76.9523,142.948 72.9523,137.281 70.5,130.5C 70.2852,128.821 70.9519,127.821 72.5,127.5 Z"/></g>
<g><path style="opacity:0.998" fill="#3f3f3f" d="M 84.5,145.5 C 89.059,148.939 93.3923,152.606 97.5,156.5C 96.4168,156.461 95.4168,156.127 94.5,155.5C 93.7025,155.957 93.3691,156.624 93.5,157.5C 89.2092,154.877 85.5425,151.544 82.5,147.5C 82.8333,146.5 83.5,145.833 84.5,145.5 Z"/></g>
<g><path style="opacity:0.998" fill="#4c4c4c" d="M 134.5,146.5 C 136.072,149.215 137.072,152.215 137.5,155.5C 137.132,162.008 136.465,168.342 135.5,174.5C 135.963,165.968 134.963,157.635 132.5,149.5C 132.343,148.127 132.51,146.793 133,145.5C 133.383,146.056 133.883,146.389 134.5,146.5 Z"/></g>
<g><path style="opacity:1" fill="#343434" d="M 155.5,149.5 C 157.308,150.918 157.975,152.918 157.5,155.5C 157.509,157.308 157.009,158.975 156,160.5C 152.596,163.068 149.763,166.068 147.5,169.5C 146.167,169.5 145.5,168.833 145.5,167.5C 145.833,166.833 146.167,166.167 146.5,165.5C 146.314,163.846 146.981,162.179 148.5,160.5C 148.5,159.5 148.5,158.5 148.5,157.5C 148.427,155.973 149.094,154.973 150.5,154.5C 151.302,155.952 151.802,157.618 152,159.5C 153.782,156.368 154.948,153.035 155.5,149.5 Z"/></g>
<g><path style="opacity:0.998" fill="#464646" d="M 150.5,154.5 C 149.094,154.973 148.427,155.973 148.5,157.5C 146.839,154.839 145.172,154.839 143.5,157.5C 144.087,160.806 145.753,161.806 148.5,160.5C 146.981,162.179 146.314,163.846 146.5,165.5C 140.875,163.373 139.042,159.373 141,153.5C 144.579,150.627 147.745,150.96 150.5,154.5 Z"/></g>
<g><path style="opacity:0.999" fill="#303030" d="M 97.5,156.5 C 103.379,156.238 109.379,156.571 115.5,157.5C 112.663,159.402 109.329,160.069 105.5,159.5C 105.167,159.5 104.833,159.5 104.5,159.5C 103.9,160.9 102.9,161.9 101.5,162.5C 100.033,162.106 98.5328,161.773 97,161.5C 93.1788,162.608 89.3455,163.608 85.5,164.5C 85.5,163.5 85.5,162.5 85.5,161.5C 87.2143,160.262 89.2143,159.595 91.5,159.5C 92.675,159.719 93.675,159.386 94.5,158.5C 94.3764,157.893 94.0431,157.56 93.5,157.5C 93.3691,156.624 93.7025,155.957 94.5,155.5C 95.4168,156.127 96.4168,156.461 97.5,156.5 Z"/></g>
<g><path style="opacity:0.635" fill="#a6a6a6" d="M 93.5,157.5 C 94.0431,157.56 94.3764,157.893 94.5,158.5C 93.675,159.386 92.675,159.719 91.5,159.5C 92.1667,158.833 92.8333,158.167 93.5,157.5 Z"/></g>
<g><path style="opacity:0.998" fill="#545454" d="M 115.5,157.5 C 117.026,158.492 117.693,159.992 117.5,162C 117.312,165.11 115.645,166.943 112.5,167.5C 108.286,166.774 104.619,165.107 101.5,162.5C 102.9,161.9 103.9,160.9 104.5,159.5C 104.5,160.167 104.833,160.5 105.5,160.5C 105.5,160.167 105.5,159.833 105.5,159.5C 109.329,160.069 112.663,159.402 115.5,157.5 Z M 105.5,160.5 C 108.722,160.108 111.722,160.608 114.5,162C 113.975,162.692 113.308,163.192 112.5,163.5C 109.873,162.942 107.54,161.942 105.5,160.5 Z"/></g>
<g><path style="opacity:1" fill="#373737" d="M 137.5,155.5 C 138.461,157.265 138.795,159.265 138.5,161.5C 138.334,166.179 138.501,170.845 139,175.5C 139.717,174.956 140.217,174.289 140.5,173.5C 142.177,171.46 143.844,169.46 145.5,167.5C 145.5,168.833 146.167,169.5 147.5,169.5C 145.14,174.369 141.806,178.536 137.5,182C 135.72,187.73 133.053,192.897 129.5,197.5C 129.567,196.041 129.234,194.708 128.5,193.5C 129.441,191.534 130.441,189.534 131.5,187.5C 131.376,186.893 131.043,186.56 130.5,186.5C 128.519,185.895 128.185,184.895 129.5,183.5C 130.508,181.661 132.008,180.328 134,179.5C 134.608,177.846 135.108,176.179 135.5,174.5C 136.465,168.342 137.132,162.008 137.5,155.5 Z"/></g>
<g><path style="opacity:0.925" fill="#746197" d="M 246.5,165.5 C 243.167,165.5 239.833,165.5 236.5,165.5C 236.97,164.307 237.97,163.64 239.5,163.5C 242.08,163.724 244.414,164.391 246.5,165.5 Z"/></g>
<g><path style="opacity:0.999" fill="#4a4a4a" d="M 85.5,161.5 C 85.5,162.5 85.5,163.5 85.5,164.5C 79.071,167.487 73.571,171.82 69,177.5C 65.5664,182.792 65.7331,187.959 69.5,193C 73.1468,195.987 77.1468,198.154 81.5,199.5C 79.8008,199.34 78.1341,199.506 76.5,200C 77.056,200.383 77.3893,200.883 77.5,201.5C 75.1815,201.008 73.1815,200.008 71.5,198.5C 71.0269,197.094 70.0269,196.427 68.5,196.5C 62.6384,191.695 61.1384,185.695 64,178.5C 69.1609,170.332 76.3275,164.665 85.5,161.5 Z"/></g>
<g><path style="opacity:0.996" fill="#7f69a3" d="M 391.5,185.5 C 391.821,179.974 391.488,174.64 390.5,169.5C 389.833,168.833 389.167,168.167 388.5,167.5C 386.283,166.631 383.95,166.298 381.5,166.5C 380.791,165.596 379.791,165.263 378.5,165.5C 383.462,162.855 387.962,163.855 392,168.5C 393.849,174.305 393.682,179.972 391.5,185.5 Z"/></g>
<g><path style="opacity:1" fill="#5b4190" d="M 196.5,168.5 C 197.219,170.764 197.552,173.097 197.5,175.5C 196.537,178.744 195.204,181.744 193.5,184.5C 193.448,182.097 193.781,179.764 194.5,177.5C 195.811,175.44 195.811,173.274 194.5,171C 185.098,166.658 180.765,169.492 181.5,179.5C 179.182,181.185 178.182,183.519 178.5,186.5C 177.5,186.5 176.5,186.5 175.5,186.5C 177.065,179.923 179.398,173.59 182.5,167.5C 184.333,167.167 186.167,166.833 188,166.5C 191.15,166.36 193.983,167.027 196.5,168.5 Z"/></g>
<g><path style="opacity:0.255" fill="#cdcdcd" d="M 138.5,161.5 C 139.167,165.5 139.833,169.5 140.5,173.5C 140.217,174.289 139.717,174.956 139,175.5C 138.501,170.845 138.334,166.179 138.5,161.5 Z"/></g>
<g><path style="opacity:1" fill="#4c239a" d="M 381.5,166.5 C 383.95,166.298 386.283,166.631 388.5,167.5C 387.629,170.272 387.629,172.938 388.5,175.5C 386.833,175.5 385.167,175.5 383.5,175.5C 382.412,174 381.079,172.667 379.5,171.5C 380.028,169.664 380.694,167.997 381.5,166.5 Z"/></g>
<g><path style="opacity:0.573" fill="#a69abf" d="M 196.5,168.5 C 197.993,169.312 198.66,170.645 198.5,172.5C 198.48,173.726 198.147,174.726 197.5,175.5C 197.552,173.097 197.219,170.764 196.5,168.5 Z"/></g>
<g><path style="opacity:1" fill="#674d99" d="M 236.5,165.5 C 239.833,165.5 243.167,165.5 246.5,165.5C 249.944,168.247 251.278,171.914 250.5,176.5C 249.669,186.987 248.002,197.32 245.5,207.5C 244.521,204.375 244.187,201.042 244.5,197.5C 245.222,197.082 245.722,196.416 246,195.5C 246.26,188.827 247.093,182.327 248.5,176C 248.333,173.833 248.167,171.667 248,169.5C 247.722,168.584 247.222,167.918 246.5,167.5C 246.167,167.5 245.833,167.5 245.5,167.5C 243.052,166.527 240.385,166.194 237.5,166.5C 237.595,169.692 236.929,172.692 235.5,175.5C 234.504,175.414 233.671,175.748 233,176.5C 232.088,181.464 231.588,186.464 231.5,191.5C 230.194,194.339 228.194,196.672 225.5,198.5C 225.5,197.833 225.5,197.167 225.5,196.5C 226.64,194.22 227.807,191.886 229,189.5C 229.826,180.862 232.326,172.862 236.5,165.5 Z"/></g>
<g><path style="opacity:1" fill="#4a229b" d="M 245.5,167.5 C 244.448,169.256 242.781,169.923 240.5,169.5C 241.746,172.837 242.579,176.17 243,179.5C 242.667,179.833 242.333,180.167 242,180.5C 241.667,179.167 241.333,177.833 241,176.5C 239.667,175.833 238.667,174.833 238,173.5C 237.626,174.416 237.126,175.25 236.5,176C 240.628,180.534 241.961,185.701 240.5,191.5C 239.5,191.5 238.5,191.5 237.5,191.5C 237.5,188.5 237.5,185.5 237.5,182.5C 236.5,182.5 235.5,182.5 234.5,182.5C 234.674,180.139 235.007,177.806 235.5,175.5C 236.929,172.692 237.595,169.692 237.5,166.5C 240.385,166.194 243.052,166.527 245.5,167.5 Z"/></g>
<g><path style="opacity:0.694" fill="#9a8fac" d="M 288.5,175.5 C 286.833,175.5 285.167,175.5 283.5,175.5C 285.048,173.078 286.714,173.078 288.5,175.5 Z"/></g>
<g><path style="opacity:1" fill="#4a2496" d="M 388.5,167.5 C 389.167,168.167 389.833,168.833 390.5,169.5C 390.522,177.53 390.022,185.53 389,193.5C 387.097,195.441 386.264,197.774 386.5,200.5C 385.508,198.544 384.508,196.544 383.5,194.5C 384.833,194.5 386.167,194.5 387.5,194.5C 387.665,191.482 387.498,188.482 387,185.5C 385.414,183.33 384.08,180.996 383,178.5C 382.617,179.056 382.117,179.389 381.5,179.5C 381.733,177.938 382.4,176.605 383.5,175.5C 385.167,175.5 386.833,175.5 388.5,175.5C 387.629,172.938 387.629,170.272 388.5,167.5 Z"/></g>
<g><path style="opacity:1" fill="#4b2399" d="M 194.5,177.5 C 193.098,179.253 191.265,180.92 189,182.5C 188.02,180.941 187.187,179.274 186.5,177.5C 186.051,181.083 184.718,184.25 182.5,187C 183.833,187.667 183.833,188.333 182.5,189C 183.577,189.47 184.577,189.303 185.5,188.5C 185.392,190.783 184.559,192.783 183,194.5C 182.601,194.272 182.435,193.938 182.5,193.5C 181.708,191.743 180.375,190.409 178.5,189.5C 179.256,186.023 180.256,182.69 181.5,179.5C 180.765,169.492 185.098,166.658 194.5,171C 195.811,173.274 195.811,175.44 194.5,177.5 Z"/></g>
<g><path style="opacity:1" fill="#4c2497" d="M 245.5,167.5 C 245.833,167.5 246.167,167.5 246.5,167.5C 247.295,172.149 247.461,176.816 247,181.5C 245.883,182.949 245.216,184.616 245,186.5C 243.119,183.649 242.285,183.982 242.5,187.5C 244.019,190.601 244.685,193.934 244.5,197.5C 244.167,197.5 243.833,197.5 243.5,197.5C 243.66,195.801 243.494,194.134 243,192.5C 242.617,193.056 242.117,193.389 241.5,193.5C 241.672,192.508 241.338,191.842 240.5,191.5C 241.961,185.701 240.628,180.534 236.5,176C 237.126,175.25 237.626,174.416 238,173.5C 238.667,174.833 239.667,175.833 241,176.5C 241.333,177.833 241.667,179.167 242,180.5C 242.333,180.167 242.667,179.833 243,179.5C 242.579,176.17 241.746,172.837 240.5,169.5C 242.781,169.923 244.448,169.256 245.5,167.5 Z"/></g>
<g><path style="opacity:1" fill="#4c2992" d="M 378.5,165.5 C 379.791,165.263 380.791,165.596 381.5,166.5C 380.694,167.997 380.028,169.664 379.5,171.5C 381.079,172.667 382.412,174 383.5,175.5C 382.4,176.605 381.733,177.938 381.5,179.5C 381.813,182.247 381.48,184.914 380.5,187.5C 379.833,183.5 379.167,179.5 378.5,175.5C 377.817,175.137 377.15,174.804 376.5,174.5C 376.5,173.167 376.5,171.833 376.5,170.5C 376.893,168.716 377.559,167.05 378.5,165.5 Z"/></g>
<g><path style="opacity:1" fill="#4a2693" d="M 194.5,177.5 C 193.781,179.764 193.448,182.097 193.5,184.5C 192.25,184.577 191.417,185.244 191,186.5C 190.505,188.473 190.338,190.473 190.5,192.5C 190.5,193.167 190.5,193.833 190.5,194.5C 190.557,195.609 190.89,196.609 191.5,197.5C 190.167,197.5 188.833,197.5 187.5,197.5C 187.785,194.171 187.118,191.171 185.5,188.5C 184.577,189.303 183.577,189.47 182.5,189C 183.833,188.333 183.833,187.667 182.5,187C 184.718,184.25 186.051,181.083 186.5,177.5C 187.187,179.274 188.02,180.941 189,182.5C 191.265,180.92 193.098,179.253 194.5,177.5 Z"/></g>
<g><path style="opacity:1" fill="#745d9e" d="M 329.5,175.5 C 329.5,178.833 329.5,182.167 329.5,185.5C 329.26,190.12 328.26,194.453 326.5,198.5C 327.385,191.188 328.052,183.855 328.5,176.5C 325.715,175.916 324.048,176.916 323.5,179.5C 320.298,179.537 318.632,181.203 318.5,184.5C 316.303,188.066 314.969,192.066 314.5,196.5C 312.27,201.87 310.604,207.536 309.5,213.5C 308.817,213.863 308.15,214.196 307.5,214.5C 310.715,202.307 314.549,190.307 319,178.5C 321.887,177.452 324.387,175.786 326.5,173.5C 327.739,173.942 328.739,174.609 329.5,175.5 Z"/></g>
<g><path style="opacity:0.914" fill="#9387ab" d="M 329.5,175.5 C 331.59,178.736 331.59,182.069 329.5,185.5C 329.5,182.167 329.5,178.833 329.5,175.5 Z"/></g>
<g><path style="opacity:1" fill="#634992" d="M 283.5,175.5 C 285.167,175.5 286.833,175.5 288.5,175.5C 290.448,178.953 290.448,182.62 288.5,186.5C 288.167,186.5 287.833,186.5 287.5,186.5C 287.5,183.833 287.5,181.167 287.5,178.5C 286.241,175.982 284.907,176.148 283.5,179C 281.975,180.009 280.308,180.509 278.5,180.5C 278.167,180.5 277.833,180.5 277.5,180.5C 277.414,179.504 277.748,178.671 278.5,178C 280.452,177.634 282.118,176.801 283.5,175.5 Z"/></g>
<g><path style="opacity:1" fill="#4a2398" d="M 287.5,178.5 C 286.834,181.028 286.168,183.694 285.5,186.5C 283.958,185.253 282.458,185.253 281,186.5C 278.961,185.022 278.128,183.022 278.5,180.5C 280.308,180.509 281.975,180.009 283.5,179C 284.907,176.148 286.241,175.982 287.5,178.5 Z"/></g>
<g><path style="opacity:1" fill="#4a2499" d="M 376.5,174.5 C 377.15,174.804 377.817,175.137 378.5,175.5C 379.167,179.5 379.833,183.5 380.5,187.5C 381.48,184.914 381.813,182.247 381.5,179.5C 382.117,179.389 382.617,179.056 383,178.5C 384.08,180.996 385.414,183.33 387,185.5C 387.498,188.482 387.665,191.482 387.5,194.5C 386.167,194.5 384.833,194.5 383.5,194.5C 383.631,193.624 383.298,192.957 382.5,192.5C 381.614,193.325 381.281,194.325 381.5,195.5C 379.43,194.493 377.43,194.826 375.5,196.5C 375.676,194.204 375.342,191.871 374.5,189.5C 374.189,184.234 374.855,179.234 376.5,174.5 Z"/></g>
<g><path style="opacity:1" fill="#5e4296" d="M 164.5,181.5 C 161.979,183.03 160.979,185.364 161.5,188.5C 161.346,190.97 160.346,192.97 158.5,194.5C 159.135,191.507 159.301,188.507 159,185.5C 158.25,186.126 157.416,186.626 156.5,187C 154.612,191.529 152.779,196.029 151,200.5C 149.961,201.71 148.794,202.71 147.5,203.5C 150.33,194.836 153.997,186.503 158.5,178.5C 160.527,176.326 162.86,175.992 165.5,177.5C 165.567,178.959 165.234,180.292 164.5,181.5 Z"/></g>
<g><path style="opacity:0.992" fill="#8e77ad" d="M 164.5,181.5 C 163.736,184.018 162.736,186.351 161.5,188.5C 160.979,185.364 161.979,183.03 164.5,181.5 Z"/></g>
<g><path style="opacity:1" fill="#4b2496" d="M 235.5,175.5 C 235.007,177.806 234.674,180.139 234.5,182.5C 235.5,182.5 236.5,182.5 237.5,182.5C 237.5,185.5 237.5,188.5 237.5,191.5C 238.5,191.5 239.5,191.5 240.5,191.5C 241.338,191.842 241.672,192.508 241.5,193.5C 239.254,194.455 236.921,195.122 234.5,195.5C 234.749,198.002 235.083,200.502 235.5,203C 235.607,205.221 234.94,207.054 233.5,208.5C 233.785,206.712 233.452,205.045 232.5,203.5C 231.914,203.709 231.414,204.043 231,204.5C 230.727,202.899 230.227,201.399 229.5,200C 232.331,197.675 232.997,194.842 231.5,191.5C 231.588,186.464 232.088,181.464 233,176.5C 233.671,175.748 234.504,175.414 235.5,175.5 Z"/></g>
<g><path style="opacity:0.969" fill="#8b72ac" d="M 193.5,184.5 C 192.871,187.397 191.871,190.064 190.5,192.5C 190.338,190.473 190.505,188.473 191,186.5C 191.417,185.244 192.25,184.577 193.5,184.5 Z"/></g>
<g><path style="opacity:1" fill="#70599d" d="M 277.5,180.5 C 277.55,187.019 275.55,192.686 271.5,197.5C 272.748,191.472 274.748,185.806 277.5,180.5 Z"/></g>
<g><path style="opacity:1" fill="#654c98" d="M 376.5,170.5 C 376.5,171.833 376.5,173.167 376.5,174.5C 374.855,179.234 374.189,184.234 374.5,189.5C 373.778,189.918 373.278,190.584 373,191.5C 372.617,190.944 372.117,190.611 371.5,190.5C 372.167,183.469 373.834,176.802 376.5,170.5 Z"/></g>
<g><path style="opacity:1" fill="#4a2499" d="M 322.5,201.5 C 321.222,201.782 320.222,202.449 319.5,203.5C 319.854,201.459 319.854,199.626 319.5,198C 321.991,197.374 321.991,196.541 319.5,195.5C 320.747,193.677 321.414,191.677 321.5,189.5C 320.5,189.5 319.5,189.5 318.5,189.5C 318.5,187.833 318.5,186.167 318.5,184.5C 318.632,181.203 320.298,179.537 323.5,179.5C 324.708,178.766 326.041,178.433 327.5,178.5C 327.64,180.124 326.973,181.29 325.5,182C 326.167,182.333 326.833,182.667 327.5,183C 326.225,185.494 324.892,187.994 323.5,190.5C 324.789,194.397 324.456,198.064 322.5,201.5 Z"/></g>
<g><path style="opacity:1" fill="#444444" d="M 129.5,183.5 C 128.185,184.895 128.519,185.895 130.5,186.5C 122.951,192.444 114.618,197.111 105.5,200.5C 105.027,199.094 104.027,198.427 102.5,198.5C 111.621,193.771 120.621,188.771 129.5,183.5 Z"/></g>
<g><path style="opacity:1" fill="#4e2a95" d="M 181.5,179.5 C 180.256,182.69 179.256,186.023 178.5,189.5C 180.375,190.409 181.708,191.743 182.5,193.5C 180.219,193.077 178.552,193.744 177.5,195.5C 176.732,194.737 176.232,193.737 176,192.5C 175.148,193.571 174.315,194.571 173.5,195.5C 173.5,194.167 173.5,192.833 173.5,191.5C 173.402,189.447 174.069,187.78 175.5,186.5C 176.5,186.5 177.5,186.5 178.5,186.5C 178.182,183.519 179.182,181.185 181.5,179.5 Z"/></g>
<g><path style="opacity:1" fill="#47288e" d="M 326.5,198.5 C 326.5,198.833 326.5,199.167 326.5,199.5C 325.034,200.347 324.2,201.68 324,203.5C 323.503,205.81 323.337,208.143 323.5,210.5C 323.5,210.833 323.5,211.167 323.5,211.5C 323.167,211.5 322.833,211.5 322.5,211.5C 322.5,208.167 322.5,204.833 322.5,201.5C 324.456,198.064 324.789,194.397 323.5,190.5C 324.892,187.994 326.225,185.494 327.5,183C 326.833,182.667 326.167,182.333 325.5,182C 326.973,181.29 327.64,180.124 327.5,178.5C 326.041,178.433 324.708,178.766 323.5,179.5C 324.048,176.916 325.715,175.916 328.5,176.5C 328.052,183.855 327.385,191.188 326.5,198.5 Z"/></g>
<g><path style="opacity:1" fill="#4a2593" d="M 158.5,194.5 C 158.5,194.833 158.5,195.167 158.5,195.5C 156.824,196.183 156.157,197.517 156.5,199.5C 155.5,199.5 154.5,199.5 153.5,199.5C 153.308,202.601 152.642,205.601 151.5,208.5C 150.998,209.521 150.332,209.688 149.5,209C 150.167,207.333 150.833,205.667 151.5,204C 150.833,203.333 150.167,203.333 149.5,204C 148.964,207.605 147.631,210.772 145.5,213.5C 145.5,212.5 145.5,211.5 145.5,210.5C 145.5,210.167 145.5,209.833 145.5,209.5C 146.458,207.698 147.125,205.698 147.5,203.5C 148.794,202.71 149.961,201.71 151,200.5C 152.779,196.029 154.612,191.529 156.5,187C 157.416,186.626 158.25,186.126 159,185.5C 159.301,188.507 159.135,191.507 158.5,194.5 Z"/></g>
<g><path style="opacity:0.98" fill="#9783b6" d="M 287.5,186.5 C 287.833,186.5 288.167,186.5 288.5,186.5C 288.102,190.761 287.102,194.761 285.5,198.5C 285.194,194.253 285.861,190.253 287.5,186.5 Z"/></g>
<g><path style="opacity:1" fill="#4b239a" d="M 383.5,194.5 C 384.508,196.544 385.508,198.544 386.5,200.5C 386.5,203.167 386.5,205.833 386.5,208.5C 385.425,209.562 384.425,209.562 383.5,208.5C 384.95,207.15 385.617,205.484 385.5,203.5C 384.5,203.5 383.5,203.5 382.5,203.5C 382.336,206.986 380.669,209.319 377.5,210.5C 376.711,210.217 376.044,209.717 375.5,209C 377.107,207.951 377.773,206.451 377.5,204.5C 378.741,202.069 379.908,202.069 381,204.5C 381.498,201.518 381.665,198.518 381.5,195.5C 381.281,194.325 381.614,193.325 382.5,192.5C 383.298,192.957 383.631,193.624 383.5,194.5 Z"/></g>
<g><path style="opacity:1" fill="#512f91" d="M 231.5,191.5 C 232.997,194.842 232.331,197.675 229.5,200C 230.227,201.399 230.727,202.899 231,204.5C 231.414,204.043 231.914,203.709 232.5,203.5C 233.452,205.045 233.785,206.712 233.5,208.5C 232.322,209.662 231.155,210.662 230,211.5C 229.503,213.81 229.337,216.143 229.5,218.5C 229.5,219.167 229.5,219.833 229.5,220.5C 226.42,220.748 223.42,221.414 220.5,222.5C 218.962,222.547 217.962,221.88 217.5,220.5C 221.43,220.55 224.763,219.217 227.5,216.5C 228.163,214.359 228.497,212.025 228.5,209.5C 228.471,206.731 227.805,204.397 226.5,202.5C 225.414,202.38 224.747,201.713 224.5,200.5C 224.543,199.584 224.876,198.917 225.5,198.5C 228.194,196.672 230.194,194.339 231.5,191.5 Z"/></g>
<g><path style="opacity:1" fill="#492593" d="M 246.5,167.5 C 247.222,167.918 247.722,168.584 248,169.5C 248.167,171.667 248.333,173.833 248.5,176C 247.093,182.327 246.26,188.827 246,195.5C 245.722,196.416 245.222,197.082 244.5,197.5C 244.685,193.934 244.019,190.601 242.5,187.5C 242.285,183.982 243.119,183.649 245,186.5C 245.216,184.616 245.883,182.949 247,181.5C 247.461,176.816 247.295,172.149 246.5,167.5 Z"/></g>
<g><path style="opacity:0.965" fill="#7f6ba4" d="M 173.5,191.5 C 173.5,192.833 173.5,194.167 173.5,195.5C 172.833,196.833 171.833,197.833 170.5,198.5C 170.935,195.843 171.935,193.509 173.5,191.5 Z"/></g>
<g><path style="opacity:0.153" fill="#e8e7e8" d="M 201.5,195.5 C 199.883,196.038 198.216,196.371 196.5,196.5C 196.5,196.167 196.5,195.833 196.5,195.5C 198.167,194.167 199.833,194.167 201.5,195.5 Z"/></g>
<g><path style="opacity:1" fill="#4e2c94" d="M 287.5,178.5 C 287.5,181.167 287.5,183.833 287.5,186.5C 285.861,190.253 285.194,194.253 285.5,198.5C 285.5,198.833 285.5,199.167 285.5,199.5C 284.883,199.611 284.383,199.944 284,200.5C 283.505,202.473 283.338,204.473 283.5,206.5C 282.943,211.052 281.943,215.385 280.5,219.5C 280.167,219.5 279.833,219.5 279.5,219.5C 279.664,216.813 279.497,214.146 279,211.5C 277.667,208.167 276.333,204.833 275,201.5C 273.984,202.634 273.317,202.301 273,200.5C 272.883,203.504 272.049,206.171 270.5,208.5C 269.957,208.44 269.624,208.107 269.5,207.5C 270.785,204.979 271.452,202.313 271.5,199.5C 271.5,198.833 271.5,198.167 271.5,197.5C 275.55,192.686 277.55,187.019 277.5,180.5C 277.833,180.5 278.167,180.5 278.5,180.5C 278.128,183.022 278.961,185.022 281,186.5C 282.458,185.253 283.958,185.253 285.5,186.5C 286.168,183.694 286.834,181.028 287.5,178.5 Z"/></g>
<g><path style="opacity:1" fill="#4d239c" d="M 283.5,187.5 C 284.139,188.097 284.472,188.93 284.5,190C 282.98,193.612 282.146,197.445 282,201.5C 280.606,199.598 278.773,199.265 276.5,200.5C 278.003,197.142 278.669,193.808 278.5,190.5C 280.664,190.279 282.33,189.279 283.5,187.5 Z"/></g>
<g><path style="opacity:1" fill="#492596" d="M 374.5,189.5 C 375.342,191.871 375.676,194.204 375.5,196.5C 377.43,194.826 379.43,194.493 381.5,195.5C 381.665,198.518 381.498,201.518 381,204.5C 379.908,202.069 378.741,202.069 377.5,204.5C 377.631,203.624 377.298,202.957 376.5,202.5C 375.119,203.881 373.785,205.215 372.5,206.5C 372.579,205.07 372.246,203.736 371.5,202.5C 369.662,201.811 367.995,201.478 366.5,201.5C 368.813,198.879 370.147,195.879 370.5,192.5C 370.328,191.508 370.662,190.842 371.5,190.5C 372.117,190.611 372.617,190.944 373,191.5C 373.278,190.584 373.778,189.918 374.5,189.5 Z"/></g>
<g><path style="opacity:1" fill="#4b239a" d="M 185.5,188.5 C 187.118,191.171 187.785,194.171 187.5,197.5C 186.662,197.842 186.328,198.508 186.5,199.5C 185.373,200.122 184.373,200.955 183.5,202C 185.249,203.292 187.082,204.458 189,205.5C 189.483,206.448 189.649,207.448 189.5,208.5C 188.5,208.5 187.5,208.5 186.5,208.5C 185.85,208.196 185.183,207.863 184.5,207.5C 183.548,209.045 183.215,210.712 183.5,212.5C 180.306,212.824 179.306,211.658 180.5,209C 179.584,208.626 178.75,208.126 178,207.5C 177.506,209.134 177.34,210.801 177.5,212.5C 176.351,212.209 175.684,211.376 175.5,210C 175.756,207.523 177.089,205.856 179.5,205C 178.956,204.283 178.289,203.783 177.5,203.5C 176.325,203.719 175.325,203.386 174.5,202.5C 175.5,200.833 176.833,199.5 178.5,198.5C 177.873,197.583 177.539,196.583 177.5,195.5C 178.552,193.744 180.219,193.077 182.5,193.5C 182.435,193.938 182.601,194.272 183,194.5C 184.559,192.783 185.392,190.783 185.5,188.5 Z"/></g>
<g><path style="opacity:0.522" fill="#9f95bd" d="M 190.5,194.5 C 192.379,195.341 194.379,195.675 196.5,195.5C 196.5,195.833 196.5,196.167 196.5,196.5C 194.883,197.038 193.216,197.371 191.5,197.5C 190.89,196.609 190.557,195.609 190.5,194.5 Z"/></g>
<g><path style="opacity:1" fill="#4b2495" d="M 318.5,184.5 C 318.5,186.167 318.5,187.833 318.5,189.5C 319.5,189.5 320.5,189.5 321.5,189.5C 321.414,191.677 320.747,193.677 319.5,195.5C 321.991,196.541 321.991,197.374 319.5,198C 319.854,199.626 319.854,201.459 319.5,203.5C 318.265,203.279 317.265,202.612 316.5,201.5C 315.83,203.291 315.163,204.958 314.5,206.5C 314.5,203.167 314.5,199.833 314.5,196.5C 314.969,192.066 316.303,188.066 318.5,184.5 Z"/></g>
<g><path style="opacity:0.302" fill="#adadad" d="M 68.5,196.5 C 70.0269,196.427 71.0269,197.094 71.5,198.5C 69.9731,198.573 68.9731,197.906 68.5,196.5 Z"/></g>
<g><path style="opacity:1" fill="#5c4093" d="M 390.5,169.5 C 391.488,174.64 391.821,179.974 391.5,185.5C 391.658,188.902 391.324,192.236 390.5,195.5C 388.837,197.438 388.171,199.772 388.5,202.5C 388.205,204.735 388.539,206.735 389.5,208.5C 390.239,208.369 390.906,208.536 391.5,209C 390.915,210.302 390.249,211.469 389.5,212.5C 389.5,211.5 389.5,210.5 389.5,209.5C 388.209,209.737 387.209,209.404 386.5,208.5C 386.5,205.833 386.5,203.167 386.5,200.5C 386.264,197.774 387.097,195.441 389,193.5C 390.022,185.53 390.522,177.53 390.5,169.5 Z"/></g>
<g><path style="opacity:0.999" fill="#454545" d="M 102.5,198.5 C 104.027,198.427 105.027,199.094 105.5,200.5C 100.372,202.824 94.8716,203.824 89,203.5C 84.8673,203.714 81.034,203.048 77.5,201.5C 77.3893,200.883 77.056,200.383 76.5,200C 78.1341,199.506 79.8008,199.34 81.5,199.5C 88.5153,200.407 95.5153,200.073 102.5,198.5 Z"/></g>
<g><path style="opacity:0.992" fill="#8c76b1" d="M 187.5,197.5 C 188.833,197.5 190.167,197.5 191.5,197.5C 190.205,198.488 188.872,199.488 187.5,200.5C 187.5,199.833 187.167,199.5 186.5,199.5C 186.328,198.508 186.662,197.842 187.5,197.5 Z"/></g>
<g><path style="opacity:0.98" fill="#9489b1" d="M 201.5,195.5 C 204.173,195.684 204.84,196.851 203.5,199C 204.167,199.667 204.833,200.333 205.5,201C 204.08,202.492 202.746,203.992 201.5,205.5C 201.5,204.167 201.5,202.833 201.5,201.5C 198.167,201.5 194.833,201.5 191.5,201.5C 194.287,200.523 197.287,200.19 200.5,200.5C 200.366,198.708 200.699,197.042 201.5,195.5 Z"/></g>
<g><path style="opacity:0.863" fill="#947fb7" d="M 390.5,195.5 C 390.279,198.067 389.612,200.401 388.5,202.5C 388.171,199.772 388.837,197.438 390.5,195.5 Z"/></g>
<g><path style="opacity:0.998" fill="#404040" d="M 128.5,193.5 C 129.234,194.708 129.567,196.041 129.5,197.5C 122.613,207.726 113.613,215.393 102.5,220.5C 103.815,219.105 103.481,218.105 101.5,217.5C 106.597,214.252 111.597,210.752 116.5,207C 120.635,202.522 124.635,198.022 128.5,193.5 Z"/></g>
<g><path style="opacity:0.988" fill="#745e9d" d="M 170.5,198.5 C 168.824,200.834 166.491,201.834 163.5,201.5C 161.219,201.923 159.552,201.256 158.5,199.5C 162.532,200.502 166.532,200.169 170.5,198.5 Z"/></g>
<g><path style="opacity:1" fill="#4a2792" d="M 177.5,195.5 C 177.539,196.583 177.873,197.583 178.5,198.5C 176.833,199.5 175.5,200.833 174.5,202.5C 175.325,203.386 176.325,203.719 177.5,203.5C 177.213,205.121 176.213,206.121 174.5,206.5C 173.833,204.833 173.167,203.167 172.5,201.5C 171.833,201.833 171.167,202.167 170.5,202.5C 169.83,204.291 169.163,205.958 168.5,207.5C 168.5,206.833 168.5,206.167 168.5,205.5C 166.052,204.527 163.385,204.194 160.5,204.5C 160.5,204.167 160.5,203.833 160.5,203.5C 161.5,202.833 162.5,202.167 163.5,201.5C 166.491,201.834 168.824,200.834 170.5,198.5C 171.833,197.833 172.833,196.833 173.5,195.5C 174.315,194.571 175.148,193.571 176,192.5C 176.232,193.737 176.732,194.737 177.5,195.5 Z"/></g>
<g><path style="opacity:0.922" fill="#8d77b3" d="M 285.5,199.5 C 285.279,202.067 284.612,204.401 283.5,206.5C 283.338,204.473 283.505,202.473 284,200.5C 284.383,199.944 284.883,199.611 285.5,199.5 Z"/></g>
<g><path style="opacity:0.929" fill="#8670a8" d="M 326.5,199.5 C 325.945,203.397 324.945,207.063 323.5,210.5C 323.337,208.143 323.503,205.81 324,203.5C 324.2,201.68 325.034,200.347 326.5,199.5 Z"/></g>
<g><path style="opacity:1" fill="#4a239a" d="M 243.5,197.5 C 241.856,197.286 240.356,197.62 239,198.5C 238.148,203.002 238.648,207.335 240.5,211.5C 241.738,208.832 241.738,206.166 240.5,203.5C 241,202.5 241.5,201.5 242,200.5C 243.213,204.834 244.38,209.168 245.5,213.5C 244.508,213.328 243.842,213.662 243.5,214.5C 242.357,214.908 241.357,215.575 240.5,216.5C 241.079,220.096 241.079,223.763 240.5,227.5C 238.07,228.896 235.57,230.229 233,231.5C 231.954,230.228 231.454,228.728 231.5,227C 231.899,223.436 232.566,219.936 233.5,216.5C 233.167,216.167 232.833,215.833 232.5,215.5C 231.859,216.993 230.859,217.993 229.5,218.5C 229.337,216.143 229.503,213.81 230,211.5C 231.155,210.662 232.322,209.662 233.5,208.5C 234.94,207.054 235.607,205.221 235.5,203C 235.083,200.502 234.749,198.002 234.5,195.5C 236.921,195.122 239.254,194.455 241.5,193.5C 242.117,193.389 242.617,193.056 243,192.5C 243.494,194.134 243.66,195.801 243.5,197.5 Z"/></g>
<g><path style="opacity:1" fill="#4c2992" d="M 243.5,197.5 C 243.833,197.5 244.167,197.5 244.5,197.5C 244.187,201.042 244.521,204.375 245.5,207.5C 246.202,208.116 247.202,208.116 248.5,207.5C 249.833,207.5 251.167,207.5 252.5,207.5C 252.5,208.5 252.5,209.5 252.5,210.5C 250.5,210.5 248.5,210.5 246.5,210.5C 246.737,211.791 246.404,212.791 245.5,213.5C 244.38,209.168 243.213,204.834 242,200.5C 241.5,201.5 241,202.5 240.5,203.5C 241.738,206.166 241.738,208.832 240.5,211.5C 238.648,207.335 238.148,203.002 239,198.5C 240.356,197.62 241.856,197.286 243.5,197.5 Z"/></g>
<g><path style="opacity:1" fill="#4c239a" d="M 319.5,203.5 C 320.222,202.449 321.222,201.782 322.5,201.5C 322.5,204.833 322.5,208.167 322.5,211.5C 319.734,213.8 317.901,216.8 317,220.5C 316.501,224.152 316.335,227.818 316.5,231.5C 314.135,232.289 311.801,231.956 309.5,230.5C 309.5,229.833 309.5,229.167 309.5,228.5C 310.947,227.866 311.613,226.699 311.5,225C 310.205,221.697 310.538,218.53 312.5,215.5C 313.478,215.977 314.311,216.643 315,217.5C 315.747,214.076 315.58,210.743 314.5,207.5C 314.5,207.167 314.5,206.833 314.5,206.5C 315.163,204.958 315.83,203.291 316.5,201.5C 317.265,202.612 318.265,203.279 319.5,203.5 Z"/></g>
<g><path style="opacity:0.239" fill="#d4b6fb" d="M 160.5,203.5 C 160.5,203.833 160.5,204.167 160.5,204.5C 159.153,205.028 157.819,205.195 156.5,205C 157.563,203.812 158.897,203.312 160.5,203.5 Z"/></g>
<g><path style="opacity:0.025" fill="#e8dafd" d="M 226.5,203.5 C 226.5,203.167 226.5,202.833 226.5,202.5C 227.805,204.397 228.471,206.731 228.5,209.5C 228.497,212.025 228.163,214.359 227.5,216.5C 227.818,211.968 227.485,207.634 226.5,203.5 Z"/></g>
<g><path style="opacity:1" fill="#503191" d="M 314.5,196.5 C 314.5,199.833 314.5,203.167 314.5,206.5C 314.5,206.833 314.5,207.167 314.5,207.5C 313.5,207.5 312.5,207.5 311.5,207.5C 311.663,209.857 311.497,212.19 311,214.5C 308.943,217.028 307.943,220.028 308,223.5C 307.667,223.167 307.333,222.833 307,222.5C 306.503,224.81 306.337,227.143 306.5,229.5C 305.833,229.5 305.167,229.5 304.5,229.5C 304.5,228.167 304.5,226.833 304.5,225.5C 304.894,221.653 305.894,217.986 307.5,214.5C 308.15,214.196 308.817,213.863 309.5,213.5C 310.604,207.536 312.27,201.87 314.5,196.5 Z"/></g>
<g><path style="opacity:1" fill="#492992" d="M 186.5,199.5 C 187.167,199.5 187.5,199.833 187.5,200.5C 188.568,201.434 189.901,201.768 191.5,201.5C 194.833,201.5 198.167,201.5 201.5,201.5C 201.5,202.833 201.5,204.167 201.5,205.5C 200.833,205.833 200.167,206.167 199.5,206.5C 195.752,206.307 192.418,207.307 189.5,209.5C 188.209,209.737 187.209,209.404 186.5,208.5C 187.5,208.5 188.5,208.5 189.5,208.5C 189.649,207.448 189.483,206.448 189,205.5C 187.082,204.458 185.249,203.292 183.5,202C 184.373,200.955 185.373,200.122 186.5,199.5 Z"/></g>
<g><path style="opacity:0.014" fill="#f6f3fc" d="M 201.5,205.5 C 201.5,206.833 200.833,207.5 199.5,207.5C 199.5,207.167 199.5,206.833 199.5,206.5C 200.167,206.167 200.833,205.833 201.5,205.5 Z"/></g>
<g><path style="opacity:0.996" fill="#6a519a" d="M 370.5,192.5 C 370.147,195.879 368.813,198.879 366.5,201.5C 367.995,201.478 369.662,201.811 371.5,202.5C 372.246,203.736 372.579,205.07 372.5,206.5C 372.666,210.514 372.499,214.514 372,218.5C 371.005,219.066 370.172,219.733 369.5,220.5C 366.327,221.368 363.327,221.368 360.5,220.5C 364.622,220.524 367.788,218.857 370,215.5C 370.827,211.459 370.66,207.459 369.5,203.5C 368.388,205.419 367.054,207.086 365.5,208.5C 365.163,205.664 363.829,204.998 361.5,206.5C 364.004,201.485 367.004,196.819 370.5,192.5 Z"/></g>
<g><path style="opacity:0.855" fill="#82759d" d="M 252.5,210.5 C 252.5,209.5 252.5,208.5 252.5,207.5C 251.167,207.5 249.833,207.5 248.5,207.5C 251.067,205.691 253.733,205.525 256.5,207C 257.833,207.667 257.833,208.333 256.5,209C 255.255,209.791 253.922,210.291 252.5,210.5 Z"/></g>
<g><path style="opacity:1" fill="#4b2397" d="M 279.5,219.5 C 278.659,221.812 277.659,224.145 276.5,226.5C 274.165,225.587 271.999,224.253 270,222.5C 269.284,224.879 268.117,226.879 266.5,228.5C 266.018,227.584 265.685,226.584 265.5,225.5C 267.064,222.694 267.73,219.694 267.5,216.5C 268.5,213.833 269.5,211.167 270.5,208.5C 272.049,206.171 272.883,203.504 273,200.5C 273.317,202.301 273.984,202.634 275,201.5C 276.333,204.833 277.667,208.167 279,211.5C 279.497,214.146 279.664,216.813 279.5,219.5 Z"/></g>
<g><path style="opacity:0.439" fill="#b2a9c4" d="M 147.5,203.5 C 147.125,205.698 146.458,207.698 145.5,209.5C 145.631,208.624 145.298,207.957 144.5,207.5C 143.583,208.127 142.583,208.461 141.5,208.5C 140.295,207.314 138.961,207.314 137.5,208.5C 140.872,207.172 144.205,205.505 147.5,203.5 Z"/></g>
<g><path style="opacity:1" fill="#4a239a" d="M 156.5,199.5 C 155.793,202.786 155.46,206.119 155.5,209.5C 158.428,209.565 161.095,210.232 163.5,211.5C 163.443,212.609 163.11,213.609 162.5,214.5C 162.167,214.5 161.833,214.5 161.5,214.5C 159.088,214.331 156.921,214.997 155,216.5C 153.715,216.05 152.548,215.383 151.5,214.5C 150.808,215.025 150.308,215.692 150,216.5C 149.029,215.802 147.863,215.802 146.5,216.5C 145.287,216.253 144.62,215.586 144.5,214.5C 145.167,214.5 145.5,214.167 145.5,213.5C 147.631,210.772 148.964,207.605 149.5,204C 150.167,203.333 150.833,203.333 151.5,204C 150.833,205.667 150.167,207.333 149.5,209C 150.332,209.688 150.998,209.521 151.5,208.5C 152.642,205.601 153.308,202.601 153.5,199.5C 154.5,199.5 155.5,199.5 156.5,199.5 Z"/></g>
<g><path style="opacity:0.725" fill="#a88fd3" d="M 168.5,205.5 C 168.5,206.167 168.5,206.833 168.5,207.5C 165.815,209.314 162.815,209.481 159.5,208C 161.436,207.187 163.436,206.687 165.5,206.5C 166.209,205.596 167.209,205.263 168.5,205.5 Z"/></g>
<g><path style="opacity:1" fill="#4b2399" d="M 177.5,203.5 C 178.289,203.783 178.956,204.283 179.5,205C 177.089,205.856 175.756,207.523 175.5,210C 175.684,211.376 176.351,212.209 177.5,212.5C 176.174,214.195 176.507,215.528 178.5,216.5C 177.837,218.042 177.17,219.709 176.5,221.5C 175.77,219.659 175.103,217.825 174.5,216C 172.338,216.412 170.172,215.912 168,214.5C 167.616,212.803 167.782,211.137 168.5,209.5C 168.5,208.833 168.5,208.167 168.5,207.5C 169.163,205.958 169.83,204.291 170.5,202.5C 171.167,202.167 171.833,201.833 172.5,201.5C 173.167,203.167 173.833,204.833 174.5,206.5C 176.213,206.121 177.213,205.121 177.5,203.5 Z"/></g>
<g><path style="opacity:1" fill="#492496" d="M 314.5,207.5 C 315.58,210.743 315.747,214.076 315,217.5C 314.311,216.643 313.478,215.977 312.5,215.5C 310.538,218.53 310.205,221.697 311.5,225C 311.613,226.699 310.947,227.866 309.5,228.5C 308.849,229.091 308.182,229.757 307.5,230.5C 306.893,230.376 306.56,230.043 306.5,229.5C 306.337,227.143 306.503,224.81 307,222.5C 307.333,222.833 307.667,223.167 308,223.5C 307.943,220.028 308.943,217.028 311,214.5C 311.497,212.19 311.663,209.857 311.5,207.5C 312.5,207.5 313.5,207.5 314.5,207.5 Z"/></g>
<g><path style="opacity:1" fill="#4a2496" d="M 377.5,204.5 C 377.773,206.451 377.107,207.951 375.5,209C 376.044,209.717 376.711,210.217 377.5,210.5C 377.5,211.5 377.5,212.5 377.5,213.5C 376.802,215.667 375.469,217.5 373.5,219C 374.38,220.356 374.714,221.856 374.5,223.5C 373.5,223.5 372.5,223.5 371.5,223.5C 371.167,223.5 370.833,223.5 370.5,223.5C 370.082,222.778 369.416,222.278 368.5,222C 369.056,221.617 369.389,221.117 369.5,220.5C 370.172,219.733 371.005,219.066 372,218.5C 372.499,214.514 372.666,210.514 372.5,206.5C 373.785,205.215 375.119,203.881 376.5,202.5C 377.298,202.957 377.631,203.624 377.5,204.5 Z"/></g>
<g><path style="opacity:0.914" fill="#725e99" d="M 199.5,206.5 C 199.5,206.833 199.5,207.167 199.5,207.5C 196.301,208.899 192.968,209.899 189.5,210.5C 189.5,210.167 189.5,209.833 189.5,209.5C 192.418,207.307 195.752,206.307 199.5,206.5 Z"/></g>
<g><path style="opacity:0.384" fill="#b8a8d2" d="M 361.5,206.5 C 361.573,208.027 360.906,209.027 359.5,209.5C 359.427,207.973 360.094,206.973 361.5,206.5 Z"/></g>
<g><path style="opacity:1" fill="#533390" d="M 158.5,195.5 C 158.5,196.833 158.5,198.167 158.5,199.5C 159.552,201.256 161.219,201.923 163.5,201.5C 162.5,202.167 161.5,202.833 160.5,203.5C 158.897,203.312 157.563,203.812 156.5,205C 157.819,205.195 159.153,205.028 160.5,204.5C 163.385,204.194 166.052,204.527 168.5,205.5C 167.209,205.263 166.209,205.596 165.5,206.5C 163.436,206.687 161.436,207.187 159.5,208C 162.815,209.481 165.815,209.314 168.5,207.5C 168.5,208.167 168.5,208.833 168.5,209.5C 167.18,210.942 165.514,211.608 163.5,211.5C 161.095,210.232 158.428,209.565 155.5,209.5C 155.46,206.119 155.793,202.786 156.5,199.5C 156.157,197.517 156.824,196.183 158.5,195.5 Z"/></g>
<g><path style="opacity:1" fill="#684b99" d="M 365.5,208.5 C 363.783,212.526 362.117,216.526 360.5,220.5C 359.683,218.031 359.183,215.365 359,212.5C 358.583,213.756 357.75,214.423 356.5,214.5C 357.11,212.566 358.11,210.899 359.5,209.5C 360.906,209.027 361.573,208.027 361.5,206.5C 363.829,204.998 365.163,205.664 365.5,208.5 Z"/></g>
<g><path style="opacity:1" fill="#4b2497" d="M 386.5,208.5 C 387.209,209.404 388.209,209.737 389.5,209.5C 389.5,210.5 389.5,211.5 389.5,212.5C 387.545,212.799 386.211,213.799 385.5,215.5C 384.065,216.913 383.065,218.58 382.5,220.5C 380.57,220.229 379.236,219.229 378.5,217.5C 378.567,216.041 378.234,214.708 377.5,213.5C 377.5,212.5 377.5,211.5 377.5,210.5C 380.669,209.319 382.336,206.986 382.5,203.5C 383.5,203.5 384.5,203.5 385.5,203.5C 385.617,205.484 384.95,207.15 383.5,208.5C 384.425,209.562 385.425,209.562 386.5,208.5 Z"/></g>
<g><path style="opacity:1" fill="#806aa5" d="M 386.5,220.5 C 386.784,218.585 386.451,216.919 385.5,215.5C 386.211,213.799 387.545,212.799 389.5,212.5C 390.249,211.469 390.915,210.302 391.5,209C 390.906,208.536 390.239,208.369 389.5,208.5C 392.647,205.549 395.98,205.215 399.5,207.5C 396.217,210.482 392.551,212.982 388.5,215C 387.891,216.948 387.224,218.782 386.5,220.5 Z"/></g>
<g><path style="opacity:1" fill="#532f95" d="M 186.5,208.5 C 187.209,209.404 188.209,209.737 189.5,209.5C 189.5,209.833 189.5,210.167 189.5,210.5C 186.975,210.977 184.975,212.31 183.5,214.5C 182.5,214.5 181.5,214.5 180.5,214.5C 180.802,217.059 180.468,219.393 179.5,221.5C 179.634,219.708 179.301,218.042 178.5,216.5C 176.507,215.528 176.174,214.195 177.5,212.5C 177.34,210.801 177.506,209.134 178,207.5C 178.75,208.126 179.584,208.626 180.5,209C 179.306,211.658 180.306,212.824 183.5,212.5C 183.215,210.712 183.548,209.045 184.5,207.5C 185.183,207.863 185.85,208.196 186.5,208.5 Z"/></g>
<g><path style="opacity:0.988" fill="#6d549b" d="M 225.5,196.5 C 225.5,197.167 225.5,197.833 225.5,198.5C 224.876,198.917 224.543,199.584 224.5,200.5C 224.747,201.713 225.414,202.38 226.5,202.5C 226.5,202.833 226.5,203.167 226.5,203.5C 223.233,209.035 220.233,214.702 217.5,220.5C 216.861,219.903 216.528,219.07 216.5,218C 217.054,216.449 217.72,214.949 218.5,213.5C 218.167,212.833 217.833,212.167 217.5,211.5C 216.482,212.193 215.482,212.859 214.5,213.5C 217.78,207.559 221.447,201.892 225.5,196.5 Z"/></g>
<g><path style="opacity:0.965" fill="#765ca4" d="M 271.5,199.5 C 271.452,202.313 270.785,204.979 269.5,207.5C 269.624,208.107 269.957,208.44 270.5,208.5C 269.5,211.167 268.5,213.833 267.5,216.5C 266.985,218.751 265.985,220.751 264.5,222.5C 266.259,214.564 268.592,206.898 271.5,199.5 Z"/></g>
<g><path style="opacity:0.976" fill="#826ba7" d="M 252.5,210.5 C 249.978,212.361 247.478,214.361 245,216.5C 244.802,218.382 244.302,220.048 243.5,221.5C 243.5,219.167 243.5,216.833 243.5,214.5C 243.842,213.662 244.508,213.328 245.5,213.5C 246.404,212.791 246.737,211.791 246.5,210.5C 248.5,210.5 250.5,210.5 252.5,210.5 Z"/></g>
<g><path style="opacity:0.875" fill="#9b87ba" d="M 322.5,211.5 C 322.833,211.5 323.167,211.5 323.5,211.5C 323.198,214.373 322.531,217.039 321.5,219.5C 321.401,216.763 321.735,214.096 322.5,211.5 Z"/></g>
<g><path style="opacity:0.459" fill="#ae9cc9" d="M 214.5,213.5 C 214.443,214.609 214.11,215.609 213.5,216.5C 213.167,216.5 212.833,216.5 212.5,216.5C 212.427,214.973 213.094,213.973 214.5,213.5 Z"/></g>
<g><path style="opacity:1" fill="#4a2594" d="M 144.5,214.5 C 144.62,215.586 145.287,216.253 146.5,216.5C 147.863,215.802 149.029,215.802 150,216.5C 150.308,215.692 150.808,215.025 151.5,214.5C 152.548,215.383 153.715,216.05 155,216.5C 156.921,214.997 159.088,214.331 161.5,214.5C 161.5,214.833 161.5,215.167 161.5,215.5C 158.413,217.017 155.079,217.684 151.5,217.5C 151.5,219.167 151.5,220.833 151.5,222.5C 151.5,223.167 151.167,223.5 150.5,223.5C 149.141,224.007 148.141,225.007 147.5,226.5C 146.322,231.772 145.655,237.105 145.5,242.5C 145.5,242.833 145.5,243.167 145.5,243.5C 144.761,243.369 144.094,243.536 143.5,244C 142.252,245.4 141.252,246.9 140.5,248.5C 139.167,248.5 137.833,248.5 136.5,248.5C 136.251,244.542 136.918,240.876 138.5,237.5C 138.808,241.009 140.808,242.676 144.5,242.5C 143.981,237.909 143.981,233.242 144.5,228.5C 146.475,226.512 146.475,224.678 144.5,223C 145.772,220.956 145.439,219.122 143.5,217.5C 142.349,216.269 141.183,216.269 140,217.5C 139.506,219.134 139.34,220.801 139.5,222.5C 135.971,216.987 137.637,214.321 144.5,214.5 Z"/></g>
<g><path style="opacity:1" fill="#4c2e8b" d="M 145.5,213.5 C 145.5,214.167 145.167,214.5 144.5,214.5C 137.637,214.321 135.971,216.987 139.5,222.5C 140.369,224.717 140.702,227.05 140.5,229.5C 140.713,232.451 140.046,235.118 138.5,237.5C 136.918,240.876 136.251,244.542 136.5,248.5C 137.833,248.5 139.167,248.5 140.5,248.5C 139.708,249.518 138.041,249.851 135.5,249.5C 135.5,246.833 135.5,244.167 135.5,241.5C 135.565,238.572 136.232,235.905 137.5,233.5C 138.924,231.485 139.59,229.152 139.5,226.5C 138.833,225.5 138.167,224.5 137.5,223.5C 135.762,218.471 136.429,213.804 139.5,209.5C 141.111,210.32 141.778,211.654 141.5,213.5C 142.833,213.5 144.167,213.5 145.5,213.5 Z"/></g>
<g><path style="opacity:1" fill="#755da2" d="M 161.5,215.5 C 162.791,215.263 163.791,215.596 164.5,216.5C 159.512,217.162 155.179,219.162 151.5,222.5C 151.5,220.833 151.5,219.167 151.5,217.5C 155.079,217.684 158.413,217.017 161.5,215.5 Z"/></g>
<g><path style="opacity:1" fill="#4a2693" d="M 377.5,213.5 C 378.234,214.708 378.567,216.041 378.5,217.5C 376.91,221.354 375.243,225.188 373.5,229C 373.728,229.399 374.062,229.565 374.5,229.5C 374.016,233.987 374.016,238.321 374.5,242.5C 374.759,240.011 373.759,238.344 371.5,237.5C 371.5,236.833 371.5,236.167 371.5,235.5C 371.5,231.5 371.5,227.5 371.5,223.5C 372.5,223.5 373.5,223.5 374.5,223.5C 374.714,221.856 374.38,220.356 373.5,219C 375.469,217.5 376.802,215.667 377.5,213.5 Z"/></g>
<g><path style="opacity:1" fill="#4a2497" d="M 378.5,217.5 C 379.236,219.229 380.57,220.229 382.5,220.5C 382.608,225.87 382.275,231.203 381.5,236.5C 380.883,236.389 380.383,236.056 380,235.5C 379.581,236.672 378.915,237.672 378,238.5C 377.502,235.518 377.335,232.518 377.5,229.5C 376.5,229.5 375.5,229.5 374.5,229.5C 374.062,229.565 373.728,229.399 373.5,229C 375.243,225.188 376.91,221.354 378.5,217.5 Z"/></g>
<g><path style="opacity:1" fill="#4a2498" d="M 168.5,209.5 C 167.782,211.137 167.616,212.803 168,214.5C 170.172,215.912 172.338,216.412 174.5,216C 175.103,217.825 175.77,219.659 176.5,221.5C 177.17,219.709 177.837,218.042 178.5,216.5C 179.301,218.042 179.634,219.708 179.5,221.5C 177.078,225.777 175.245,230.443 174,235.5C 173.667,233.5 173.333,231.5 173,229.5C 172.722,230.416 172.222,231.082 171.5,231.5C 170.29,228.258 169.29,224.925 168.5,221.5C 167.548,223.045 167.215,224.712 167.5,226.5C 166.579,223.308 166.412,219.975 167,216.5C 165.89,214.963 164.39,214.297 162.5,214.5C 163.11,213.609 163.443,212.609 163.5,211.5C 165.514,211.608 167.18,210.942 168.5,209.5 Z"/></g>
<g><path style="opacity:0.965" fill="#7d68a6" d="M 141.5,208.5 C 142.504,209.683 143.338,211.016 144,212.5C 144.278,211.584 144.778,210.918 145.5,210.5C 145.5,211.5 145.5,212.5 145.5,213.5C 144.167,213.5 142.833,213.5 141.5,213.5C 141.778,211.654 141.111,210.32 139.5,209.5C 136.429,213.804 135.762,218.471 137.5,223.5C 135.561,222.986 134.561,221.653 134.5,219.5C 134.977,215.564 135.977,211.897 137.5,208.5C 138.961,207.314 140.295,207.314 141.5,208.5 Z"/></g>
<g><path style="opacity:1" fill="#674c94" d="M 212.5,216.5 C 212.833,216.5 213.167,216.5 213.5,216.5C 213.649,217.552 213.483,218.552 213,219.5C 210.96,221.37 209.127,223.37 207.5,225.5C 206.833,225.5 206.167,225.5 205.5,225.5C 207.458,222.208 209.791,219.208 212.5,216.5 Z"/></g>
<g><path style="opacity:1" fill="#614399" d="M 322.5,211.5 C 321.735,214.096 321.401,216.763 321.5,219.5C 321.768,221.099 321.434,222.432 320.5,223.5C 318.656,225.279 317.99,227.612 318.5,230.5C 317.793,233.786 317.46,237.119 317.5,240.5C 318.152,241.725 319.319,242.392 321,242.5C 322.385,242.486 323.551,242.152 324.5,241.5C 329.377,241.536 333.71,240.202 337.5,237.5C 337.249,239.17 336.582,240.67 335.5,242C 328.54,243.087 321.54,243.587 314.5,243.5C 314.41,241.304 314.077,239.137 313.5,237C 314.562,235.159 315.562,233.326 316.5,231.5C 316.335,227.818 316.501,224.152 317,220.5C 317.901,216.8 319.734,213.8 322.5,211.5 Z"/></g>
<g><path style="opacity:1" fill="#484848" d="M 101.5,217.5 C 103.481,218.105 103.815,219.105 102.5,220.5C 97.2437,223.622 91.577,225.955 85.5,227.5C 87.129,225.804 86.7957,224.804 84.5,224.5C 90.0098,221.991 95.6765,219.658 101.5,217.5 Z"/></g>
<g><path style="opacity:0.882" fill="#8571a6" d="M 183.5,214.5 C 182.158,218.919 180.825,223.252 179.5,227.5C 179.5,225.5 179.5,223.5 179.5,221.5C 180.468,219.393 180.802,217.059 180.5,214.5C 181.5,214.5 182.5,214.5 183.5,214.5 Z"/></g>
<g><path style="opacity:0.004" fill="#f0e8f9" d="M 243.5,221.5 C 244.625,222.652 244.625,223.652 243.5,224.5C 242.375,223.348 242.375,222.348 243.5,221.5 Z"/></g>
<g><path style="opacity:1" fill="#6b5398" d="M 356.5,214.5 C 356.657,215.873 356.49,217.207 356,218.5C 353.842,219.489 352.675,221.156 352.5,223.5C 351.18,224.942 349.514,225.608 347.5,225.5C 350.152,221.518 353.152,217.851 356.5,214.5 Z"/></g>
<g><path style="opacity:1" fill="#4f299c" d="M 213.5,228.5 C 212.662,228.842 212.328,229.508 212.5,230.5C 212.158,231.338 211.492,231.672 210.5,231.5C 205.121,233.501 203.121,231.834 204.5,226.5C 205.167,226.5 205.5,226.167 205.5,225.5C 206.167,225.5 206.833,225.5 207.5,225.5C 208.833,225.5 210.167,225.5 211.5,225.5C 211.222,223.654 211.889,222.32 213.5,221.5C 214.912,222.806 216.579,223.64 218.5,224C 216.233,224.894 214.566,226.394 213.5,228.5 Z"/></g>
<g><path style="opacity:1" fill="#492691" d="M 217.5,220.5 C 217.962,221.88 218.962,222.547 220.5,222.5C 223.42,221.414 226.42,220.748 229.5,220.5C 230.625,221.348 230.625,222.348 229.5,223.5C 224.171,225.163 218.838,226.83 213.5,228.5C 214.566,226.394 216.233,224.894 218.5,224C 216.579,223.64 214.912,222.806 213.5,221.5C 211.889,222.32 211.222,223.654 211.5,225.5C 210.167,225.5 208.833,225.5 207.5,225.5C 209.127,223.37 210.96,221.37 213,219.5C 213.483,218.552 213.649,217.552 213.5,216.5C 214.11,215.609 214.443,214.609 214.5,213.5C 215.482,212.859 216.482,212.193 217.5,211.5C 217.833,212.167 218.167,212.833 218.5,213.5C 217.72,214.949 217.054,216.449 216.5,218C 216.528,219.07 216.861,219.903 217.5,220.5 Z"/></g>
<g><path style="opacity:0.914" fill="#826aa8" d="M 370.5,223.5 C 370.833,223.5 371.167,223.5 371.5,223.5C 371.5,227.5 371.5,231.5 371.5,235.5C 370.834,232.311 370.167,228.977 369.5,225.5C 366.104,227.632 362.437,228.965 358.5,229.5C 358.5,228.833 358.5,228.167 358.5,227.5C 362.51,226.294 366.51,224.961 370.5,223.5 Z"/></g>
<g><path style="opacity:1" fill="#4b2499" d="M 144.5,228.5 C 143.292,229.234 141.959,229.567 140.5,229.5C 140.702,227.05 140.369,224.717 139.5,222.5C 139.34,220.801 139.506,219.134 140,217.5C 141.183,216.269 142.349,216.269 143.5,217.5C 145.439,219.122 145.772,220.956 144.5,223C 146.475,224.678 146.475,226.512 144.5,228.5 Z"/></g>
<g><path style="opacity:0.992" fill="#6e549b" d="M 229.5,223.5 C 230.269,230.269 230.935,237.103 231.5,244C 231.486,245.385 231.152,246.551 230.5,247.5C 229.104,241.939 228.438,236.273 228.5,230.5C 228.799,228.396 228.466,226.396 227.5,224.5C 226.893,224.624 226.56,224.957 226.5,225.5C 222.247,228.292 217.58,229.958 212.5,230.5C 212.328,229.508 212.662,228.842 213.5,228.5C 218.838,226.83 224.171,225.163 229.5,223.5 Z"/></g>
<g><path style="opacity:0.937" fill="#8b75af" d="M 320.5,223.5 C 320.279,226.067 319.612,228.401 318.5,230.5C 317.99,227.612 318.656,225.279 320.5,223.5 Z"/></g>
<g><path style="opacity:1" fill="#4a2790" d="M 360.5,220.5 C 363.327,221.368 366.327,221.368 369.5,220.5C 369.389,221.117 369.056,221.617 368.5,222C 369.416,222.278 370.082,222.778 370.5,223.5C 366.51,224.961 362.51,226.294 358.5,227.5C 358.918,226.778 359.584,226.278 360.5,226C 357.833,225.667 355.167,225.333 352.5,225C 355.901,225.266 357.567,223.766 357.5,220.5C 355.336,220.721 353.67,221.721 352.5,223.5C 352.675,221.156 353.842,219.489 356,218.5C 356.49,217.207 356.657,215.873 356.5,214.5C 357.75,214.423 358.583,213.756 359,212.5C 359.183,215.365 359.683,218.031 360.5,220.5 Z"/></g>
<g><path style="opacity:0.937" fill="#7e7e7e" d="M 83.5,224.5 C 80.237,226.568 76.5704,227.568 72.5,227.5C 75.9365,226.055 79.6032,225.055 83.5,224.5 Z"/></g>
<g><path style="opacity:1" fill="#726393" d="M 205.5,225.5 C 205.5,226.167 205.167,226.5 204.5,226.5C 202.821,226.285 201.821,226.952 201.5,228.5C 198.648,227.301 197.815,225.634 199,223.5C 201.047,224.609 203.213,225.276 205.5,225.5 Z"/></g>
<g><path style="opacity:0.176" fill="#dac7f0" d="M 226.5,225.5 C 226.56,224.957 226.893,224.624 227.5,224.5C 228.466,226.396 228.799,228.396 228.5,230.5C 227.833,228.833 227.167,227.167 226.5,225.5 Z"/></g>
<g><path style="opacity:1" fill="#492494" d="M 358.5,227.5 C 358.5,228.167 358.5,228.833 358.5,229.5C 355.833,229.5 353.167,229.5 350.5,229.5C 349.36,232.025 348.693,234.692 348.5,237.5C 348.167,237.5 347.833,237.5 347.5,237.5C 348.244,234.05 346.91,232.384 343.5,232.5C 344.833,230.167 346.167,227.833 347.5,225.5C 349.514,225.608 351.18,224.942 352.5,223.5C 353.67,221.721 355.336,220.721 357.5,220.5C 357.567,223.766 355.901,225.266 352.5,225C 355.167,225.333 357.833,225.667 360.5,226C 359.584,226.278 358.918,226.778 358.5,227.5 Z"/></g>
<g><path style="opacity:1" fill="#4b2399" d="M 171.5,231.5 C 170.854,233.156 170.187,234.823 169.5,236.5C 170.889,238.996 171.889,241.663 172.5,244.5C 172.823,248.226 172.489,251.893 171.5,255.5C 169.115,256.661 166.781,257.661 164.5,258.5C 162.761,259.434 161.095,259.434 159.5,258.5C 160.493,253.89 161.16,249.223 161.5,244.5C 163.827,241.856 164.494,238.856 163.5,235.5C 163.833,234.833 164.167,234.167 164.5,233.5C 165.425,234.641 166.259,234.641 167,233.5C 167.497,231.19 167.663,228.857 167.5,226.5C 167.215,224.712 167.548,223.045 168.5,221.5C 169.29,224.925 170.29,228.258 171.5,231.5 Z"/></g>
<g><path style="opacity:0.965" fill="#715c9c" d="M 347.5,225.5 C 346.167,227.833 344.833,230.167 343.5,232.5C 342.527,234.139 341.194,235.473 339.5,236.5C 338.833,236.833 338.167,237.167 337.5,237.5C 339.27,234.554 341.27,231.72 343.5,229C 338.174,223.075 339.507,221.909 347.5,225.5 Z"/></g>
<g><path style="opacity:1" fill="#4b4b4b" d="M 83.5,224.5 C 83.8333,224.5 84.1667,224.5 84.5,224.5C 86.7957,224.804 87.129,225.804 85.5,227.5C 66.8275,233.013 48.1608,234.68 29.5,232.5C 29.5,231.167 29.5,229.833 29.5,228.5C 43.8687,229.892 58.2021,229.559 72.5,227.5C 76.5704,227.568 80.237,226.568 83.5,224.5 Z"/></g>
<g><path style="opacity:0.957" fill="#9986b7" d="M 139.5,226.5 C 139.59,229.152 138.924,231.485 137.5,233.5C 137.41,230.848 138.076,228.515 139.5,226.5 Z"/></g>
<g><path style="opacity:1" fill="#6e569f" d="M 150.5,223.5 C 149.57,230.143 147.903,236.476 145.5,242.5C 145.655,237.105 146.322,231.772 147.5,226.5C 148.141,225.007 149.141,224.007 150.5,223.5 Z"/></g>
<g><path style="opacity:1" fill="#6e559c" d="M 264.5,222.5 C 264.664,225.187 264.497,227.854 264,230.5C 261.757,236.045 259.924,241.712 258.5,247.5C 257.9,248.9 256.9,249.9 255.5,250.5C 258.206,240.988 261.206,231.655 264.5,222.5 Z"/></g>
<g><path style="opacity:1" fill="#8870ac" d="M 358.5,229.5 C 354.33,230.991 350.997,233.658 348.5,237.5C 348.693,234.692 349.36,232.025 350.5,229.5C 353.167,229.5 355.833,229.5 358.5,229.5 Z"/></g>
<g><path style="opacity:1" fill="#4a2499" d="M 374.5,229.5 C 375.5,229.5 376.5,229.5 377.5,229.5C 377.335,232.518 377.502,235.518 378,238.5C 378.915,237.672 379.581,236.672 380,235.5C 380.383,236.056 380.883,236.389 381.5,236.5C 380.624,241.774 379.624,247.107 378.5,252.5C 377.482,251.807 376.482,251.141 375.5,250.5C 374.612,247.946 374.279,245.279 374.5,242.5C 374.016,238.321 374.016,233.987 374.5,229.5 Z"/></g>
<g><path style="opacity:1" fill="#492594" d="M 267.5,216.5 C 267.73,219.694 267.064,222.694 265.5,225.5C 265.685,226.584 266.018,227.584 266.5,228.5C 267.095,231.113 267.929,231.113 269,228.5C 269.167,229 269.333,229.5 269.5,230C 267.262,233.981 266.929,238.148 268.5,242.5C 267.5,242.5 266.5,242.5 265.5,242.5C 264.596,241.791 264.263,240.791 264.5,239.5C 263.5,239.5 262.5,239.5 261.5,239.5C 261.571,242.311 262.238,244.978 263.5,247.5C 263.167,248.167 262.833,248.833 262.5,249.5C 261.264,248.754 259.93,248.421 258.5,248.5C 258.5,248.167 258.5,247.833 258.5,247.5C 259.924,241.712 261.757,236.045 264,230.5C 264.497,227.854 264.664,225.187 264.5,222.5C 265.985,220.751 266.985,218.751 267.5,216.5 Z"/></g>
<g><path style="opacity:1" fill="#4b2399" d="M 309.5,230.5 C 311.801,231.956 314.135,232.289 316.5,231.5C 315.562,233.326 314.562,235.159 313.5,237C 314.077,239.137 314.41,241.304 314.5,243.5C 313.262,245.214 312.595,247.214 312.5,249.5C 311.5,249.5 310.5,249.5 309.5,249.5C 309.833,252.5 308.5,253.833 305.5,253.5C 305.33,252.178 305.663,251.011 306.5,250C 305.809,248.933 305.309,247.766 305,246.5C 304.517,247.448 304.351,248.448 304.5,249.5C 303.167,249.5 301.833,249.5 300.5,249.5C 300.5,247.5 300.5,245.5 300.5,243.5C 302.117,242.411 302.95,240.744 303,238.5C 303.308,239.308 303.808,239.975 304.5,240.5C 305.167,238.833 305.833,237.167 306.5,235.5C 307.425,234.359 308.259,234.359 309,235.5C 309.494,233.866 309.66,232.199 309.5,230.5 Z"/></g>
<g><path style="opacity:1" fill="#512f95" d="M 179.5,221.5 C 179.5,223.5 179.5,225.5 179.5,227.5C 179.212,230.939 178.546,234.272 177.5,237.5C 175.715,239.845 174.049,242.178 172.5,244.5C 171.889,241.663 170.889,238.996 169.5,236.5C 170.187,234.823 170.854,233.156 171.5,231.5C 172.222,231.082 172.722,230.416 173,229.5C 173.333,231.5 173.667,233.5 174,235.5C 175.245,230.443 177.078,225.777 179.5,221.5 Z"/></g>
<g><path style="opacity:1" fill="#614694" d="M 204.5,226.5 C 203.121,231.834 205.121,233.501 210.5,231.5C 207.677,235.805 204.844,240.138 202,244.5C 201.184,245.823 200.017,246.489 198.5,246.5C 196.621,247.341 194.621,247.675 192.5,247.5C 192.5,247.167 192.5,246.833 192.5,246.5C 192.5,244.5 192.5,242.5 192.5,240.5C 192.833,240.5 193.167,240.5 193.5,240.5C 193.5,242.167 193.5,243.833 193.5,245.5C 195.167,245.5 196.833,245.5 198.5,245.5C 198.5,244.5 198.5,243.5 198.5,242.5C 199.675,242.719 200.675,242.386 201.5,241.5C 202.091,239.15 203.091,236.983 204.5,235C 203.928,232.926 202.595,231.76 200.5,231.5C 200.5,231.167 200.5,230.833 200.5,230.5C 200.833,229.833 201.167,229.167 201.5,228.5C 201.821,226.952 202.821,226.285 204.5,226.5 Z"/></g>
<g><path style="opacity:1" fill="#492691" d="M 240.5,227.5 C 240.5,237.167 240.5,246.833 240.5,256.5C 237.733,256.142 235.067,255.475 232.5,254.5C 232.975,251.918 232.308,249.918 230.5,248.5C 230.5,248.167 230.5,247.833 230.5,247.5C 231.152,246.551 231.486,245.385 231.5,244C 230.935,237.103 230.269,230.269 229.5,223.5C 230.625,222.348 230.625,221.348 229.5,220.5C 229.5,219.833 229.5,219.167 229.5,218.5C 230.859,217.993 231.859,216.993 232.5,215.5C 232.833,215.833 233.167,216.167 233.5,216.5C 232.566,219.936 231.899,223.436 231.5,227C 231.454,228.728 231.954,230.228 233,231.5C 235.57,230.229 238.07,228.896 240.5,227.5 Z"/></g>
<g><path style="opacity:1" fill="#4b2497" d="M 276.5,226.5 C 274.371,231.46 274.038,236.46 275.5,241.5C 274.993,242.859 273.993,243.859 272.5,244.5C 273.559,245.696 274.893,246.363 276.5,246.5C 277.5,245.833 278.5,245.167 279.5,244.5C 281.869,244.595 283.536,245.595 284.5,247.5C 282.81,247.856 281.81,248.856 281.5,250.5C 277.036,250.366 273.536,252.032 271,255.5C 270.586,255.043 270.086,254.709 269.5,254.5C 268.818,255.243 268.151,255.909 267.5,256.5C 267.916,253.594 268.582,250.761 269.5,248C 269.16,243.64 267.993,243.473 266,247.5C 265.506,245.866 265.34,244.199 265.5,242.5C 266.5,242.5 267.5,242.5 268.5,242.5C 266.929,238.148 267.262,233.981 269.5,230C 269.333,229.5 269.167,229 269,228.5C 267.929,231.113 267.095,231.113 266.5,228.5C 268.117,226.879 269.284,224.879 270,222.5C 271.999,224.253 274.165,225.587 276.5,226.5 Z"/></g>
<g><path style="opacity:1" fill="#492693" d="M 309.5,228.5 C 309.5,229.167 309.5,229.833 309.5,230.5C 309.66,232.199 309.494,233.866 309,235.5C 308.259,234.359 307.425,234.359 306.5,235.5C 305.833,237.167 305.167,238.833 304.5,240.5C 303.808,239.975 303.308,239.308 303,238.5C 302.95,240.744 302.117,242.411 300.5,243.5C 300.5,242.167 300.5,240.833 300.5,239.5C 300.5,239.167 300.5,238.833 300.5,238.5C 302.764,235.906 304.097,232.906 304.5,229.5C 305.167,229.5 305.833,229.5 306.5,229.5C 306.56,230.043 306.893,230.376 307.5,230.5C 308.182,229.757 308.849,229.091 309.5,228.5 Z"/></g>
<g><path style="opacity:0.956" fill="#604692" d="M 243.5,214.5 C 243.5,216.833 243.5,219.167 243.5,221.5C 242.375,222.348 242.375,223.348 243.5,224.5C 242.693,230.775 242.027,237.108 241.5,243.5C 241.834,248.607 241.501,252.94 240.5,256.5C 240.5,246.833 240.5,237.167 240.5,227.5C 241.079,223.763 241.079,220.096 240.5,216.5C 241.357,215.575 242.357,214.908 243.5,214.5 Z"/></g>
<g><path style="opacity:0.996" fill="#745e9d" d="M 304.5,225.5 C 304.5,226.833 304.5,228.167 304.5,229.5C 304.097,232.906 302.764,235.906 300.5,238.5C 301.388,233.928 302.721,229.595 304.5,225.5 Z"/></g>
<g><path style="opacity:1" fill="#4a2791" d="M 385.5,215.5 C 386.451,216.919 386.784,218.585 386.5,220.5C 386.5,220.833 386.5,221.167 386.5,221.5C 385.85,221.804 385.183,222.137 384.5,222.5C 382.808,234.099 382.142,245.766 382.5,257.5C 381.167,257.5 379.833,257.5 378.5,257.5C 378.279,255.336 377.279,253.67 375.5,252.5C 375.5,251.833 375.5,251.167 375.5,250.5C 376.482,251.141 377.482,251.807 378.5,252.5C 379.624,247.107 380.624,241.774 381.5,236.5C 382.275,231.203 382.608,225.87 382.5,220.5C 383.065,218.58 384.065,216.913 385.5,215.5 Z"/></g>
<g><path style="opacity:1" fill="#5b3b99" d="M 161.5,215.5 C 161.5,215.167 161.5,214.833 161.5,214.5C 161.833,214.5 162.167,214.5 162.5,214.5C 164.39,214.297 165.89,214.963 167,216.5C 166.412,219.975 166.579,223.308 167.5,226.5C 167.663,228.857 167.497,231.19 167,233.5C 166.259,234.641 165.425,234.641 164.5,233.5C 164.167,234.167 163.833,234.833 163.5,235.5C 164.494,238.856 163.827,241.856 161.5,244.5C 161.802,241.941 161.468,239.607 160.5,237.5C 162,230.506 163.333,223.506 164.5,216.5C 163.791,215.596 162.791,215.263 161.5,215.5 Z"/></g>
<g><path style="opacity:1" fill="#4a2498" d="M 343.5,232.5 C 346.91,232.384 348.244,234.05 347.5,237.5C 345.476,240.372 342.809,242.705 339.5,244.5C 335.7,244.181 335.534,243.181 339,241.5C 339.494,239.866 339.66,238.199 339.5,236.5C 341.194,235.473 342.527,234.139 343.5,232.5 Z"/></g>
<g><path style="opacity:1" fill="#4a239b" d="M 144.5,228.5 C 143.981,233.242 143.981,237.909 144.5,242.5C 140.808,242.676 138.808,241.009 138.5,237.5C 140.046,235.118 140.713,232.451 140.5,229.5C 141.959,229.567 143.292,229.234 144.5,228.5 Z"/></g>
<g><path style="opacity:1" fill="#846fa9" d="M 200.5,230.5 C 200.5,230.833 200.5,231.167 200.5,231.5C 198.397,234.72 196.064,237.72 193.5,240.5C 193.167,240.5 192.833,240.5 192.5,240.5C 194.688,236.793 197.355,233.46 200.5,230.5 Z"/></g>
<g><path style="opacity:1" fill="#4a239a" d="M 236.5,231.5 C 237.5,231.5 238.5,231.5 239.5,231.5C 239.752,234.244 239.085,236.744 237.5,239C 239.623,242.621 239.957,246.454 238.5,250.5C 237.914,250.291 237.414,249.957 237,249.5C 235.615,253.419 234.448,253.419 233.5,249.5C 235.153,246.42 234.819,243.586 232.5,241C 233.435,237.635 234.768,234.468 236.5,231.5 Z"/></g>
<g><path style="opacity:1" fill="#4b239b" d="M 265.5,242.5 C 265.34,244.199 265.506,245.866 266,247.5C 267.993,243.473 269.16,243.64 269.5,248C 268.582,250.761 267.916,253.594 267.5,256.5C 267.5,256.833 267.5,257.167 267.5,257.5C 261.339,257.519 258.339,254.519 258.5,248.5C 259.93,248.421 261.264,248.754 262.5,249.5C 262.833,248.833 263.167,248.167 263.5,247.5C 262.238,244.978 261.571,242.311 261.5,239.5C 262.5,239.5 263.5,239.5 264.5,239.5C 264.263,240.791 264.596,241.791 265.5,242.5 Z"/></g>
<g><path style="opacity:0.992" fill="#826caa" d="M 371.5,237.5 C 373.759,238.344 374.759,240.011 374.5,242.5C 374.279,245.279 374.612,247.946 375.5,250.5C 375.5,251.167 375.5,251.833 375.5,252.5C 375.5,253.5 375.5,254.5 375.5,255.5C 373.249,252.493 372.582,249.16 373.5,245.5C 372.215,242.979 371.548,240.313 371.5,237.5 Z"/></g>
<g><path style="opacity:0.906" fill="#aa99c0" d="M 192.5,240.5 C 192.5,242.5 192.5,244.5 192.5,246.5C 191.661,245.359 190.994,244.026 190.5,242.5C 190.855,241.478 191.522,240.811 192.5,240.5 Z"/></g>
<g><path style="opacity:0.169" fill="#c0b2e3" d="M 317.5,240.5 C 319.717,241.369 322.05,241.702 324.5,241.5C 323.551,242.152 322.385,242.486 321,242.5C 319.319,242.392 318.152,241.725 317.5,240.5 Z"/></g>
<g><path style="opacity:0.976" fill="#7b62a6" d="M 279.5,219.5 C 279.833,219.5 280.167,219.5 280.5,219.5C 279.652,224.226 278.485,228.892 277,233.5C 276.333,235.833 276.333,238.167 277,240.5C 283.292,240.976 289.626,241.309 296,241.5C 297.787,241.241 299.287,240.575 300.5,239.5C 300.5,240.833 300.5,242.167 300.5,243.5C 294.833,243.664 294.5,243.997 299.5,244.5C 299.88,246.698 299.213,248.365 297.5,249.5C 297.414,248.504 297.748,247.671 298.5,247C 292.638,247.047 286.971,248.214 281.5,250.5C 281.81,248.856 282.81,247.856 284.5,247.5C 286.746,246.79 289.08,246.29 291.5,246C 292.357,245.311 293.023,244.478 293.5,243.5C 287.448,242.794 281.448,242.127 275.5,241.5C 274.038,236.46 274.371,231.46 276.5,226.5C 277.659,224.145 278.659,221.812 279.5,219.5 Z"/></g>
<g><path style="opacity:1" fill="#70559d" d="M 177.5,237.5 C 176.778,244.085 175.278,250.751 173,257.5C 170.14,258.423 167.307,259.423 164.5,260.5C 164.5,259.833 164.5,259.167 164.5,258.5C 166.781,257.661 169.115,256.661 171.5,255.5C 172.489,251.893 172.823,248.226 172.5,244.5C 174.049,242.178 175.715,239.845 177.5,237.5 Z"/></g>
<g><path style="opacity:1" fill="#482692" d="M 200.5,231.5 C 202.595,231.76 203.928,232.926 204.5,235C 203.091,236.983 202.091,239.15 201.5,241.5C 200.675,242.386 199.675,242.719 198.5,242.5C 198.5,243.5 198.5,244.5 198.5,245.5C 196.833,245.5 195.167,245.5 193.5,245.5C 193.5,243.833 193.5,242.167 193.5,240.5C 196.064,237.72 198.397,234.72 200.5,231.5 Z"/></g>
<g><path style="opacity:1" fill="#4b268f" d="M 275.5,241.5 C 281.448,242.127 287.448,242.794 293.5,243.5C 293.023,244.478 292.357,245.311 291.5,246C 289.08,246.29 286.746,246.79 284.5,247.5C 283.536,245.595 281.869,244.595 279.5,244.5C 278.5,245.167 277.5,245.833 276.5,246.5C 274.893,246.363 273.559,245.696 272.5,244.5C 273.993,243.859 274.993,242.859 275.5,241.5 Z"/></g>
<g><path style="opacity:1" fill="#6e5599" d="M 347.5,237.5 C 347.833,237.5 348.167,237.5 348.5,237.5C 346.785,241.596 344.119,244.929 340.5,247.5C 335.402,246.848 330.402,247.515 325.5,249.5C 325.926,247.715 327.092,246.715 329,246.5C 332.677,246.028 336.177,245.362 339.5,244.5C 342.809,242.705 345.476,240.372 347.5,237.5 Z"/></g>
<g><path style="opacity:0.651" fill="#a69abc" d="M 198.5,246.5 C 198.03,247.693 197.03,248.36 195.5,248.5C 194.274,248.48 193.274,248.147 192.5,247.5C 194.621,247.675 196.621,247.341 198.5,246.5 Z"/></g>
<g><path style="opacity:0.91" fill="#816ca2" d="M 135.5,241.5 C 135.5,244.167 135.5,246.833 135.5,249.5C 138.041,249.851 139.708,249.518 140.5,248.5C 141.252,246.9 142.252,245.4 143.5,244C 144.094,243.536 144.761,243.369 145.5,243.5C 144.611,250.409 140.945,252.742 134.5,250.5C 133.669,247.336 134.002,244.336 135.5,241.5 Z"/></g>
<g><path style="opacity:0.576" fill="#a694c7" d="M 159.5,243.5 C 159.324,246.727 158.657,249.727 157.5,252.5C 157.215,249.171 157.882,246.171 159.5,243.5 Z"/></g>
<g><path style="opacity:0.961" fill="#8977a9" d="M 230.5,248.5 C 232.308,249.918 232.975,251.918 232.5,254.5C 231.262,252.786 230.595,250.786 230.5,248.5 Z"/></g>
<g><path style="opacity:1" fill="#492590" d="M 300.5,243.5 C 300.5,245.5 300.5,247.5 300.5,249.5C 301.833,249.5 303.167,249.5 304.5,249.5C 304.351,248.448 304.517,247.448 305,246.5C 305.309,247.766 305.809,248.933 306.5,250C 305.663,251.011 305.33,252.178 305.5,253.5C 303.278,253.178 301.444,253.845 300,255.5C 299.275,253.842 298.108,253.342 296.5,254C 295.565,256.381 295.232,258.881 295.5,261.5C 294.366,259.034 294.199,256.367 295,253.5C 296.481,252.529 297.315,251.196 297.5,249.5C 299.213,248.365 299.88,246.698 299.5,244.5C 294.5,243.997 294.833,243.664 300.5,243.5 Z"/></g>
<g><path style="opacity:1" fill="#4b2695" d="M 339.5,236.5 C 339.66,238.199 339.494,239.866 339,241.5C 335.534,243.181 335.7,244.181 339.5,244.5C 336.177,245.362 332.677,246.028 329,246.5C 327.092,246.715 325.926,247.715 325.5,249.5C 323.95,250.441 322.284,251.107 320.5,251.5C 317.5,251.5 314.5,251.5 311.5,251.5C 311.5,252.5 311.5,253.5 311.5,254.5C 310.5,254.5 309.5,254.5 308.5,254.5C 308.64,256.124 307.973,257.29 306.5,258C 307.056,258.383 307.389,258.883 307.5,259.5C 304.447,260.718 301.28,261.718 298,262.5C 297.098,262.257 296.265,261.923 295.5,261.5C 295.232,258.881 295.565,256.381 296.5,254C 298.108,253.342 299.275,253.842 300,255.5C 301.444,253.845 303.278,253.178 305.5,253.5C 308.5,253.833 309.833,252.5 309.5,249.5C 310.5,249.5 311.5,249.5 312.5,249.5C 312.595,247.214 313.262,245.214 314.5,243.5C 321.54,243.587 328.54,243.087 335.5,242C 336.582,240.67 337.249,239.17 337.5,237.5C 338.167,237.167 338.833,236.833 339.5,236.5 Z"/></g>
<g><path style="opacity:1" fill="#4c2e8e" d="M 160.5,237.5 C 161.468,239.607 161.802,241.941 161.5,244.5C 161.16,249.223 160.493,253.89 159.5,258.5C 161.095,259.434 162.761,259.434 164.5,258.5C 164.5,259.167 164.5,259.833 164.5,260.5C 158.5,261.833 156.167,259.5 157.5,253.5C 157.5,253.167 157.5,252.833 157.5,252.5C 158.657,249.727 159.324,246.727 159.5,243.5C 159.517,241.435 159.85,239.435 160.5,237.5 Z"/></g>
<g><path style="opacity:0.973" fill="#7b62a3" d="M 281.5,250.5 C 275.587,253.739 269.92,257.406 264.5,261.5C 264.5,260.5 264.5,259.5 264.5,258.5C 265.791,258.737 266.791,258.404 267.5,257.5C 267.5,257.167 267.5,256.833 267.5,256.5C 268.151,255.909 268.818,255.243 269.5,254.5C 270.086,254.709 270.586,255.043 271,255.5C 273.536,252.032 277.036,250.366 281.5,250.5 Z"/></g>
<g><path style="opacity:1" fill="#5e478e" d="M 386.5,221.5 C 386.528,223.582 385.861,225.416 384.5,227C 384.575,233.623 384.575,240.456 384.5,247.5C 384.756,251.269 384.423,254.936 383.5,258.5C 381.784,258.629 380.117,258.962 378.5,259.5C 376.738,258.738 375.738,257.404 375.5,255.5C 375.5,254.5 375.5,253.5 375.5,252.5C 377.279,253.67 378.279,255.336 378.5,257.5C 379.833,257.5 381.167,257.5 382.5,257.5C 382.142,245.766 382.808,234.099 384.5,222.5C 385.183,222.137 385.85,221.804 386.5,221.5 Z"/></g>
<g><path style="opacity:1" fill="#6c51a0" d="M 320.5,251.5 C 316.172,254.159 311.838,256.826 307.5,259.5C 307.389,258.883 307.056,258.383 306.5,258C 307.973,257.29 308.64,256.124 308.5,254.5C 309.5,254.5 310.5,254.5 311.5,254.5C 311.5,253.5 311.5,252.5 311.5,251.5C 314.5,251.5 317.5,251.5 320.5,251.5 Z"/></g>
<g><path style="opacity:0.22" fill="#e0d8f4" d="M 384.5,247.5 C 385.161,249.134 385.494,250.967 385.5,253C 385.453,255.295 384.787,257.129 383.5,258.5C 384.423,254.936 384.756,251.269 384.5,247.5 Z"/></g>
<g><path style="opacity:1" fill="#492693" d="M 258.5,247.5 C 258.5,247.833 258.5,248.167 258.5,248.5C 258.339,254.519 261.339,257.519 267.5,257.5C 266.791,258.404 265.791,258.737 264.5,258.5C 264.5,259.5 264.5,260.5 264.5,261.5C 264.167,261.5 263.833,261.5 263.5,261.5C 260.237,262.138 257.071,262.138 254,261.5C 253.249,257.595 253.749,253.929 255.5,250.5C 256.9,249.9 257.9,248.9 258.5,247.5 Z"/></g>
<g><path style="opacity:1" fill="#6c5595" d="M 241.5,243.5 C 242.814,248.348 242.814,253.348 241.5,258.5C 237.017,261.085 234.017,259.752 232.5,254.5C 235.067,255.475 237.733,256.142 240.5,256.5C 241.501,252.94 241.834,248.607 241.5,243.5 Z"/></g>
<g><path style="opacity:0.078" fill="#efeaf9" d="M 383.5,258.5 C 382.005,260.345 380.338,260.678 378.5,259.5C 380.117,258.962 381.784,258.629 383.5,258.5 Z"/></g>
<g><path style="opacity:0.937" fill="#9b8eb5" d="M 157.5,253.5 C 156.167,259.5 158.5,261.833 164.5,260.5C 162.444,261.199 160.444,262.199 158.5,263.5C 157.031,261.808 156.365,259.808 156.5,257.5C 156.511,255.955 156.844,254.622 157.5,253.5 Z"/></g>
<g><path style="opacity:0.965" fill="#79649e" d="M 255.5,250.5 C 253.749,253.929 253.249,257.595 254,261.5C 257.071,262.138 260.237,262.138 263.5,261.5C 260.272,264.78 256.772,265.113 253,262.5C 250.379,257.622 251.213,253.622 255.5,250.5 Z"/></g>
<g><path style="opacity:1" fill="#7f68a6" d="M 297.5,249.5 C 297.315,251.196 296.481,252.529 295,253.5C 294.199,256.367 294.366,259.034 295.5,261.5C 296.265,261.923 297.098,262.257 298,262.5C 301.28,261.718 304.447,260.718 307.5,259.5C 304.411,263.254 300.411,264.754 295.5,264C 290.995,258.367 291.662,253.533 297.5,249.5 Z"/></g>
<g><path style="opacity:0.227" fill="#e2e2e2" d="M 111.5,283.5 C 110.791,282.596 109.791,282.263 108.5,282.5C 107.668,282.754 107.001,283.754 106.5,285.5C 106.5,283.833 106.5,282.167 106.5,280.5C 108.833,280.5 111.167,280.5 113.5,280.5C 113.715,282.179 113.048,283.179 111.5,283.5 Z"/></g>
<g><path style="opacity:0.238" fill="#bfbfbf" d="M 163.5,280.5 C 166.167,280.5 168.833,280.5 171.5,280.5C 171.881,282.942 171.214,283.609 169.5,282.5C 167.744,284.554 167.41,286.721 168.5,289C 166.833,289.667 165.167,289.667 163.5,289C 165.639,286.948 166.472,284.448 166,281.5C 164.484,284.051 163.651,283.718 163.5,280.5 Z"/></g>
<g><path style="opacity:0.294" fill="#b7b7b7" d="M 357.5,280.5 C 363.067,279.753 364.9,282.087 363,287.5C 360.582,289.68 357.916,290.013 355,288.5C 354.018,285.225 354.851,282.559 357.5,280.5 Z M 357.5,282.5 C 358.833,282.5 360.167,282.5 361.5,282.5C 361.978,285.278 360.978,287.278 358.5,288.5C 357.28,288.113 356.613,287.28 356.5,286C 356.989,284.862 357.322,283.695 357.5,282.5 Z"/></g>
<g><path style="opacity:0.267" fill="#bfbfbf" d="M 370.5,281.5 C 372.56,280.189 374.726,280.189 377,281.5C 377.332,284.69 375.832,286.69 372.5,287.5C 372.709,288.086 373.043,288.586 373.5,289C 372.167,289.667 370.833,289.667 369.5,289C 371.269,286.504 371.602,284.004 370.5,281.5 Z M 373.5,281.5 C 375.332,282.14 375.665,283.14 374.5,284.5C 373.614,283.675 373.281,282.675 373.5,281.5 Z"/></g>
<g><path style="opacity:0.086" fill="#d3d3d3" d="M 197.5,289.5 C 197.567,288.041 197.234,286.708 196.5,285.5C 197.451,284.081 197.784,282.415 197.5,280.5C 198.552,280.351 199.552,280.517 200.5,281C 199.307,283.87 198.307,286.704 197.5,289.5 Z"/></g>
<g><path style="opacity:0.596" fill="#b4b4b4" d="M 148.5,281.5 C 149.251,280.427 150.251,280.26 151.5,281C 153.783,287.091 154.783,286.925 154.5,280.5C 155.675,280.281 156.675,280.614 157.5,281.5C 156.499,284.172 155.499,286.839 154.5,289.5C 152.854,288.221 151.687,286.555 151,284.5C 149.632,285.993 149.465,287.493 150.5,289C 149.5,289.667 148.5,289.667 147.5,289C 148.227,286.876 148.894,284.709 149.5,282.5C 149.376,281.893 149.043,281.56 148.5,281.5 Z"/></g>
<g><path style="opacity:0.412" fill="#b5b5b5" d="M 255.5,283.5 C 255.62,286.205 254.62,286.872 252.5,285.5C 251.614,286.325 251.281,287.325 251.5,288.5C 253.226,288.185 254.893,288.019 256.5,288C 254.045,289.54 251.379,289.874 248.5,289C 250,286.379 250.334,283.712 249.5,281C 251.81,280.503 254.143,280.337 256.5,280.5C 256.737,281.791 256.404,282.791 255.5,283.5 Z M 255.5,283.5 C 254.233,284.087 253.233,284.087 252.5,283.5C 253.614,282.224 254.614,282.224 255.5,283.5 Z"/></g>
<g><path style="opacity:0.733" fill="#b1b1b1" d="M 306.5,283.5 C 306.5,284.5 306.5,285.5 306.5,286.5C 307.774,287.189 307.774,288.023 306.5,289C 304.167,289.667 301.833,289.667 299.5,289C 301.179,286.435 301.846,283.602 301.5,280.5C 303.924,280.192 306.257,280.526 308.5,281.5C 308.145,282.522 307.478,283.189 306.5,283.5 Z M 306.5,283.5 C 305.425,284.562 304.425,284.562 303.5,283.5C 304.614,282.224 305.614,282.224 306.5,283.5 Z M 306.5,286.5 C 305.573,288.476 304.24,288.809 302.5,287.5C 303.325,285.3 304.658,284.966 306.5,286.5 Z"/></g>
<g><path style="opacity:0.445" fill="#b0b0b0" d="M 334.5,283.5 C 334.396,285.973 333.396,286.639 331.5,285.5C 330.167,286.5 330.167,287.5 331.5,288.5C 332.609,287.41 333.609,287.41 334.5,288.5C 332.235,289.647 329.902,289.814 327.5,289C 328.227,286.876 328.894,284.709 329.5,282.5C 329.291,281.914 328.957,281.414 328.5,281C 330.81,280.503 333.143,280.337 335.5,280.5C 335.737,281.791 335.404,282.791 334.5,283.5 Z M 334.5,283.5 C 333.233,284.087 332.233,284.087 331.5,283.5C 332.614,282.224 333.614,282.224 334.5,283.5 Z"/></g>
<g><path style="opacity:0.369" fill="#b1b1b1" d="M 342.5,280.5 C 343.873,280.343 345.207,280.51 346.5,281C 345.198,283.213 344.198,285.546 343.5,288C 345.367,288.711 346.867,288.211 348,286.5C 348.617,287.449 348.451,288.282 347.5,289C 345.167,289.667 342.833,289.667 340.5,289C 342.314,286.519 342.98,283.685 342.5,280.5 Z"/></g>
<g><path style="opacity:0.333" fill="#b4b4b4" d="M 235.5,283.5 C 236.222,283.082 236.722,282.416 237,281.5C 237.278,282.416 237.778,283.082 238.5,283.5C 238.351,284.552 238.517,285.552 239,286.5C 239.707,284.919 240.54,283.419 241.5,282C 241.167,281.667 240.833,281.333 240.5,281C 241.833,280.333 243.167,280.333 244.5,281C 242.623,283.921 240.623,286.754 238.5,289.5C 237.416,288.335 236.583,287.002 236,285.5C 235.363,287.303 234.197,288.636 232.5,289.5C 231.511,286.562 230.844,283.562 230.5,280.5C 231.5,280.5 232.5,280.5 233.5,280.5C 233.338,282.527 233.505,284.527 234,286.5C 234.513,285.473 235.013,284.473 235.5,283.5 Z"/></g>
<g><path style="opacity:0.169" fill="#e3e3e3" d="M 238.5,283.5 C 237.778,283.082 237.278,282.416 237,281.5C 236.722,282.416 236.222,283.082 235.5,283.5C 235.5,282.5 235.5,281.5 235.5,280.5C 236.873,280.343 238.207,280.51 239.5,281C 238.748,281.671 238.414,282.504 238.5,283.5 Z"/></g>
<g><path style="opacity:0.784" fill="#acacac" d="M 389.5,283.5 C 389.62,286.205 388.62,286.872 386.5,285.5C 385.614,286.325 385.281,287.325 385.5,288.5C 387.226,288.185 388.893,288.019 390.5,288C 388.045,289.54 385.379,289.874 382.5,289C 384,286.379 384.334,283.712 383.5,281C 385.81,280.503 388.143,280.337 390.5,280.5C 390.737,281.791 390.404,282.791 389.5,283.5 Z M 389.5,283.5 C 388.233,284.087 387.233,284.087 386.5,283.5C 387.614,282.224 388.614,282.224 389.5,283.5 Z"/></g>
<g><path style="opacity:0.467" fill="#aaaaaa" d="M 135.5,280.5 C 141.854,280.605 143.187,283.439 139.5,289C 133.906,290.913 131.739,289.08 133,283.5C 134.045,282.627 134.878,281.627 135.5,280.5 Z M 137.5,281.5 C 140.274,284.111 139.941,286.444 136.5,288.5C 133.764,285.767 134.098,283.433 137.5,281.5 Z"/></g>
<g><path style="opacity:0.412" fill="#aeaeae" d="M 206.5,281.5 C 209.469,279.994 212.302,280.327 215,282.5C 214.994,288.805 211.828,290.971 205.5,289C 206.955,286.442 207.288,283.942 206.5,281.5 Z M 209.5,281.5 C 214.65,283.602 214.65,285.936 209.5,288.5C 208.943,286.282 208.943,283.949 209.5,281.5 Z"/></g>
<g><path style="opacity:0.271" fill="#c0c0c0" d="M 313.5,281.5 C 314.568,280.566 315.901,280.232 317.5,280.5C 317.005,286.186 318.005,286.686 320.5,282C 320.167,281.667 319.833,281.333 319.5,281C 320.833,280.333 322.167,280.333 323.5,281C 321.326,284.004 318.992,286.837 316.5,289.5C 315.743,286.63 314.743,283.964 313.5,281.5 Z"/></g>
<g><path style="opacity:0.204" fill="#b1b1b1" d="M 397.5,281.5 C 400.157,279.987 402.49,280.487 404.5,283C 402.078,285.112 402.078,287.112 404.5,289C 402.112,289.865 400.612,289.032 400,286.5C 399.517,287.448 399.351,288.448 399.5,289.5C 398.448,289.649 397.448,289.483 396.5,289C 397.227,286.876 397.894,284.709 398.5,282.5C 398.376,281.893 398.043,281.56 397.5,281.5 Z"/></g>
<g><path style="opacity:0.733" fill="#a0a0a0" d="M 119.5,281.5 C 121.223,280.193 123.057,280.193 125,281.5C 125.711,283.367 125.211,284.867 123.5,286C 125.547,288.054 125.547,289.054 123.5,289C 122.851,286.519 121.851,286.186 120.5,288C 120.833,288.333 121.167,288.667 121.5,289C 120.167,289.667 118.833,289.667 117.5,289C 118.991,286.903 119.991,284.57 120.5,282C 120.272,281.601 119.938,281.435 119.5,281.5 Z M 122.5,281.5 C 123.776,282.386 123.776,283.386 122.5,284.5C 121.438,283.575 121.438,282.575 122.5,281.5 Z"/></g>
<g><path style="opacity:0.239" fill="#b9b9b9" d="M 183.5,283.5 C 183.62,286.205 182.62,286.872 180.5,285.5C 179.614,286.325 179.281,287.325 179.5,288.5C 181.226,288.185 182.893,288.019 184.5,288C 182.045,289.54 179.379,289.874 176.5,289C 178,286.379 178.334,283.712 177.5,281C 179.81,280.503 182.143,280.337 184.5,280.5C 184.737,281.791 184.404,282.791 183.5,283.5 Z M 183.5,283.5 C 182.233,284.087 181.233,284.087 180.5,283.5C 181.614,282.224 182.614,282.224 183.5,283.5 Z"/></g>
<g><path style="opacity:0.227" fill="#b1b1b1" d="M 285.5,281.5 C 289.107,279.775 292.107,280.609 294.5,284C 293.047,289.139 289.713,290.806 284.5,289C 285.227,286.876 285.894,284.709 286.5,282.5C 286.376,281.893 286.043,281.56 285.5,281.5 Z M 288.5,282.5 C 289.5,282.5 290.5,282.5 291.5,282.5C 291.923,285.288 290.923,287.288 288.5,288.5C 287.481,286.54 287.481,284.54 288.5,282.5 Z"/></g>
<g><path style="opacity:0.718" fill="#959595" d="M 108.5,282.5 C 108.804,284.796 109.804,285.129 111.5,283.5C 111.881,285.942 111.214,286.609 109.5,285.5C 107.997,286.59 107.664,287.757 108.5,289C 107.167,289.667 105.833,289.667 104.5,289C 105.823,288.184 106.489,287.017 106.5,285.5C 107.001,283.754 107.668,282.754 108.5,282.5 Z"/></g>
<g><path style="opacity:0.565" fill="#b3b3b3" d="M 196.5,285.5 C 197.234,286.708 197.567,288.041 197.5,289.5C 196.115,288.426 194.949,287.093 194,285.5C 192.383,286.536 192.216,287.703 193.5,289C 192.167,289.667 190.833,289.667 189.5,289C 191.314,286.519 191.98,283.685 191.5,280.5C 194.255,280.963 195.922,282.63 196.5,285.5 Z"/></g>
<g><path style="opacity:0.29" fill="#b1b1b1" d="M 263.5,281.5 C 265.56,280.189 267.726,280.189 270,281.5C 270.023,284.051 269.523,286.551 268.5,289C 262.146,290.645 260.813,288.478 264.5,282.5C 264.376,281.893 264.043,281.56 263.5,281.5 Z M 265.5,285.5 C 267.465,285.948 267.798,286.948 266.5,288.5C 265.614,287.675 265.281,286.675 265.5,285.5 Z M 266.5,282.5 C 269.001,282.511 269.168,283.178 267,284.5C 266.536,283.906 266.369,283.239 266.5,282.5 Z"/></g>
</svg>
